<svg xmlns="http://www.w3.org/2000/svg" xmlns:xlink="http://www.w3.org/1999/xlink" width="500" zoomAndPan="magnify" viewBox="0 0 375 374.999991" height="500" preserveAspectRatio="xMidYMid meet" version="1.0"><defs><g><g id="id1"/><g id="id2"/></g></defs><path fill="rgb(100%, 100%, 100%)" d="M 187.378906 318.671875 C 147.363281 318.671875 109.683594 303.097656 81.410156 274.761719 C 53.074219 246.488281 37.5 208.808594 37.5 168.792969 C 37.5 128.777344 53.074219 91.097656 81.410156 62.820312 C 109.683594 34.488281 147.363281 18.910156 187.378906 18.910156 C 227.394531 18.910156 265.074219 34.488281 293.351562 62.820312 C 321.683594 91.15625 337.261719 128.777344 337.261719 168.792969 C 337.261719 208.808594 321.683594 246.488281 293.351562 274.761719 C 265.074219 303.097656 227.394531 318.671875 187.378906 318.671875 Z M 187.378906 27.898438 C 149.761719 27.898438 114.355469 42.574219 87.757812 69.171875 C 61.164062 95.769531 46.484375 131.171875 46.484375 168.792969 C 46.484375 206.410156 61.164062 241.816406 87.757812 268.414062 C 114.355469 295.011719 149.761719 309.6875 187.378906 309.6875 C 225 309.6875 260.402344 295.011719 287 268.414062 C 313.597656 241.816406 328.273438 206.410156 328.273438 168.792969 C 328.273438 131.171875 313.597656 95.769531 287 69.171875 C 260.402344 42.574219 225 27.898438 187.378906 27.898438 Z M 187.378906 27.898438 " fill-opacity="1" fill-rule="nonzero"/><g fill="rgb(100%, 100%, 100%)" fill-opacity="1"><g transform="translate(63.142292, 172.826401)"><g><path d="M 11.40625 -53.25 C 16.832031 -53.25 20.660156 -51.601562 22.890625 -48.3125 C 23.335938 -47.59375 23.5625 -46.9375 23.5625 -46.34375 L 23.5625 -41.765625 C 23.5625 -35.992188 20.753906 -25.726562 15.140625 -10.96875 C 12.421875 -4.070312 10.851562 0.457031 10.4375 2.625 L 10.4375 3.921875 C 10.4375 4.234375 10.757812 4.550781 11.40625 4.875 L 14.390625 4.875 C 19.679688 3.625 25.253906 1.988281 31.109375 -0.03125 L 32.0625 -0.03125 C 32.519531 0.03125 32.75 0.257812 32.75 0.65625 L 32.75 1.578125 C 28.320312 4.128906 18.257812 7.96875 2.5625 13.09375 L 1.234375 13.09375 C -0.0546875 13.09375 -1.1875 12.570312 -2.15625 11.53125 C -3.125 10.5 -3.09375 8.394531 -2.0625 5.21875 C 8.90625 -25.363281 14.390625 -42.316406 14.390625 -45.640625 C 14.390625 -48.960938 13.394531 -51.398438 11.40625 -52.953125 Z M 11.40625 -53.25 "/></g></g></g><g fill="rgb(100%, 100%, 100%)" fill-opacity="1"><g transform="translate(89.05699, 172.826401)"><g><path d="M 15.625 -27.640625 C 18.632812 -27.972656 20.015625 -25.800781 19.765625 -21.125 C 18.753906 -16.507812 18.25 -13.691406 18.25 -12.671875 C 18.25 -11.453125 18.613281 -10.8125 19.34375 -10.75 C 20.632812 -10.75 23.3125 -11.675781 27.375 -13.53125 L 27.5625 -13.09375 L 27.5625 -12.015625 C 27.226562 -10.941406 25.722656 -9.859375 23.046875 -8.765625 C 22.160156 -8.046875 20.992188 -7.6875 19.546875 -7.6875 C 17.222656 -7.914062 15.707031 -8.988281 15 -10.90625 C 14.289062 -12.820312 13.9375 -14.210938 13.9375 -15.078125 L 13.71875 -15.078125 C 10.320312 -9.003906 7.351562 -5.96875 4.8125 -5.96875 C 4.21875 -5.96875 3.859375 -5.96875 3.734375 -5.96875 C 2.171875 -5.96875 0.804688 -7.363281 -0.359375 -10.15625 C -1.535156 -12.957031 -0.0351562 -16.695312 4.140625 -21.375 C 8.941406 -24.832031 11.703125 -26.5625 12.421875 -26.5625 C 14.421875 -27.28125 15.488281 -27.640625 15.625 -27.640625 Z M 2.875 -10.3125 L 3.484375 -9.890625 C 6.890625 -11.617188 9.300781 -13.71875 10.71875 -16.1875 C 12.132812 -18.65625 12.84375 -20.097656 12.84375 -20.515625 L 12.84375 -21.125 L 12.609375 -21.125 C 8.773438 -19.957031 6.191406 -17.953125 4.859375 -15.109375 C 3.535156 -12.265625 2.875 -10.664062 2.875 -10.3125 Z M 2.875 -10.3125 "/></g></g></g><g fill="rgb(100%, 100%, 100%)" fill-opacity="1"><g transform="translate(116.392517, 172.826401)"><g/></g></g><g fill="rgb(100%, 100%, 100%)" fill-opacity="1"><g transform="translate(132.083419, 172.826401)"><g><path d="M 6.984375 -28.328125 C 8.359375 -35.554688 8.972656 -39.828125 8.828125 -41.140625 C 8.503906 -43.722656 7.488281 -45.46875 5.78125 -46.375 L 5.75 -46.640625 C 10.007812 -47.390625 13.179688 -46.640625 15.265625 -44.390625 C 15.691406 -43.878906 15.925781 -43.40625 15.96875 -42.96875 L 16.4375 -39.390625 C 16.738281 -36.796875 16.457031 -32.675781 15.59375 -27.03125 C 21.757812 -26.144531 26.519531 -25.554688 29.875 -25.265625 C 31.789062 -34.921875 32.664062 -40.523438 32.5 -42.078125 C 32.144531 -44.648438 31.125 -46.398438 29.4375 -47.328125 L 29.40625 -47.578125 C 33.664062 -48.316406 36.835938 -47.570312 38.921875 -45.34375 C 39.359375 -44.832031 39.597656 -44.347656 39.640625 -43.890625 L 40.09375 -40.3125 C 40.40625 -37.757812 40.140625 -33.710938 39.296875 -28.171875 C 39.378906 -28.359375 39.453125 -28.554688 39.515625 -28.765625 L 39.71875 -28.796875 C 40.625 -24.566406 40.265625 -21.289062 38.640625 -18.96875 C 38.296875 -18.488281 37.945312 -18.203125 37.59375 -18.109375 L 37.4375 -18.078125 C 37.113281 -16.460938 36.765625 -14.78125 36.390625 -13.03125 C 34.066406 -4.832031 31.285156 0.632812 28.046875 3.375 C 24.816406 6.125 23.75 4.789062 24.84375 -0.625 C 26.007812 -6.550781 27.109375 -11.925781 28.140625 -16.75 C 24.515625 -16.84375 19.8125 -17.320312 14.03125 -18.1875 C 13.613281 -16.28125 13.382812 -15.109375 13.34375 -14.671875 C 10.476562 -4.273438 8.054688 2.617188 6.078125 6.015625 C 4.109375 9.421875 2.238281 10.578125 0.46875 9.484375 L 1.796875 3.21875 C 3.890625 -7.269531 5.0625 -14.941406 5.3125 -19.796875 C 1.8125 -21.179688 -0.503906 -22.804688 -1.640625 -24.671875 C -2.785156 -26.535156 -3.351562 -28.363281 -3.34375 -30.15625 L 1.703125 -29.125 C 3.535156 -28.84375 5.296875 -28.578125 6.984375 -28.328125 Z M 6.984375 -28.328125 "/></g></g></g><g fill="rgb(100%, 100%, 100%)" fill-opacity="1"><g transform="translate(173.287479, 172.826401)"><g><path d="M 8.5 -30.1875 C 8.90625 -30.382812 9.460938 -30.269531 10.171875 -29.84375 C 10.890625 -29.425781 11.25 -29.046875 11.25 -28.703125 L 11.25 -27.734375 C 11.25 -25.285156 10.132812 -24.0625 7.90625 -24.0625 L 7.296875 -24.0625 C 6.984375 -24.0625 6.671875 -24.367188 6.359375 -24.984375 L 6.359375 -26.8125 C 7.390625 -28.875 8.101562 -30 8.5 -30.1875 Z M 5.46875 -22.859375 C 7.6875 -22.390625 8.796875 -21.367188 8.796875 -19.796875 L 8.796875 -18.90625 C 5.734375 -13.675781 4.203125 -10.101562 4.203125 -8.1875 C 4.671875 -7.570312 5.128906 -7.265625 5.578125 -7.265625 C 6.035156 -7.265625 6.800781 -7.519531 7.875 -8.03125 C 8.945312 -8.539062 11.253906 -10.476562 14.796875 -13.84375 C 15.210938 -13.78125 15.421875 -13.5625 15.421875 -13.1875 C 15.421875 -12.613281 14.203125 -11.304688 11.765625 -9.265625 C 9.335938 -7.222656 7.238281 -6.144531 5.46875 -6.03125 C 3.144531 -6.03125 1.609375 -7.757812 0.859375 -11.21875 L 0.859375 -11.859375 C 0.859375 -13.242188 2.085938 -16.507812 4.546875 -21.65625 C 4.648438 -22.457031 4.957031 -22.859375 5.46875 -22.859375 Z M 5.46875 -22.859375 "/></g></g></g><g fill="rgb(100%, 100%, 100%)" fill-opacity="1"><g transform="translate(187.588439, 172.826401)"><g><path d="M 4.078125 -7.078125 C 8.078125 -9.054688 10.972656 -11.476562 12.765625 -14.34375 C 14.554688 -17.21875 15.460938 -18.894531 15.484375 -19.375 L 15.5 -20.109375 L 15.234375 -20.109375 C 10.722656 -18.753906 7.613281 -16.429688 5.90625 -13.140625 C 4.195312 -9.859375 3.585938 -7.835938 4.078125 -7.078125 Z M 17.265625 -13.96875 C 12.265625 -6.34375 8.289062 -2.53125 5.34375 -2.53125 L 4.84375 -2.3125 C 4.519531 -2.457031 4.265625 -2.53125 4.078125 -2.53125 C 2.265625 -2.53125 0.765625 -4.148438 -0.421875 -7.390625 C -1.617188 -10.640625 0.332031 -14.972656 5.4375 -20.390625 C 11.1875 -24.398438 14.472656 -26.40625 15.296875 -26.40625 C 17.660156 -27.226562 18.9375 -27.640625 19.125 -27.640625 C 22.414062 -27.992188 23.90625 -25.769531 23.59375 -20.96875 L 23.65625 -11.25 C 23.226562 -6.300781 21.722656 -1.023438 19.140625 4.578125 C 16.554688 10.191406 13.359375 13.21875 9.546875 13.65625 C 5.734375 14.101562 2.6875 13.707031 0.40625 12.46875 C -1.863281 11.238281 -2.960938 9.851562 -2.890625 8.3125 C -2.816406 6.769531 -1.800781 6.671875 0.15625 8.015625 C 2.113281 9.367188 4.171875 10.085938 6.328125 10.171875 C 8.492188 10.265625 10.425781 8.882812 12.125 6.03125 C 13.820312 3.1875 15.070312 -0.570312 15.875 -5.25 C 16.507812 -8.957031 16.972656 -11.863281 17.265625 -13.96875 Z M 17.265625 -13.96875 "/></g></g></g><g fill="rgb(100%, 100%, 100%)" fill-opacity="1"><g transform="translate(212.174969, 172.826401)"><g><path d="M 24.21875 -3.921875 C 22.71875 -3.390625 21.234375 -3.234375 19.765625 -3.453125 C 18.304688 -3.679688 17.113281 -4.597656 16.1875 -6.203125 C 15.257812 -7.816406 15.09375 -10.257812 15.6875 -13.53125 L 15.53125 -13.53125 C 12.21875 -9.101562 9.1875 -6.957031 6.4375 -7.09375 C 3.6875 -7.226562 1.828125 -9.046875 0.859375 -12.546875 C 0.367188 -14.421875 0.425781 -17.59375 1.03125 -22.0625 C 1.644531 -26.53125 2.484375 -29.242188 3.546875 -30.203125 C 4.617188 -31.171875 5.773438 -30.945312 7.015625 -29.53125 C 8.554688 -27.269531 8.484375 -21.21875 6.796875 -11.375 L 6.828125 -11 C 8.660156 -11.738281 10.566406 -12.9375 12.546875 -14.59375 C 14.535156 -16.25 16.132812 -18.910156 17.34375 -22.578125 C 18.550781 -26.242188 19.535156 -28.382812 20.296875 -29 L 21.03125 -29.09375 C 23.46875 -29.53125 24.332031 -27.441406 23.625 -22.828125 C 22.082031 -13.929688 21.535156 -8.691406 21.984375 -7.109375 C 22.441406 -5.535156 23.1875 -4.472656 24.21875 -3.921875 Z M 24.21875 -3.921875 "/></g></g></g><g fill="rgb(100%, 100%, 100%)" fill-opacity="1"><g transform="translate(236.205523, 172.826401)"><g><path d="M 10.8125 -27.609375 L 15.203125 -27.609375 C 16.765625 -26.765625 17.546875 -26.140625 17.546875 -25.734375 L 17.546875 -24.21875 C 16.890625 -20.53125 13.285156 -17.328125 6.734375 -14.609375 L 6.453125 -14.609375 L 6.453125 -13.375 C 7.546875 -11.726562 8.8125 -10.90625 10.25 -10.90625 L 10.53125 -10.90625 C 12.738281 -10.800781 15.816406 -12.179688 19.765625 -15.046875 L 20.015625 -14.390625 L 20.015625 -13.78125 C 16.304688 -10.007812 12.753906 -8.125 9.359375 -8.125 C 3.710938 -9.007812 0.890625 -11.582031 0.890625 -15.84375 C 1.859375 -20.207031 3.53125 -23.304688 5.90625 -25.140625 C 8.144531 -26.785156 9.78125 -27.609375 10.8125 -27.609375 Z M 6.453125 -18.046875 L 6.453125 -17.703125 C 9.691406 -18.609375 12.132812 -20.359375 13.78125 -22.953125 L 14.03125 -23.59375 L 14.03125 -23.875 L 13.78125 -24.53125 C 8.894531 -22.96875 6.453125 -20.804688 6.453125 -18.046875 Z M 6.453125 -18.046875 "/></g></g></g><g fill="rgb(100%, 100%, 100%)" fill-opacity="1"><g transform="translate(255.541174, 172.826401)"><g><path d="M 4.9375 -30.15625 C 7.78125 -28.832031 9.203125 -27.117188 9.203125 -25.015625 L 9.203125 -22.484375 C 12.046875 -25.515625 15.722656 -27.03125 20.234375 -27.03125 C 23.242188 -27.03125 25.890625 -25.796875 28.171875 -23.328125 C 28.546875 -22.359375 28.175781 -21.882812 27.0625 -21.90625 C 26.914062 -21.90625 26.347656 -22.003906 25.359375 -22.203125 C 18.335938 -24.078125 12.992188 -20.578125 9.328125 -11.703125 C 7.347656 -4.953125 5.976562 -0.125 5.21875 2.78125 L 4.640625 3.0625 L 4.078125 3.0625 C -0.410156 1.988281 -2.109375 -1.519531 -1.015625 -7.46875 C 1.640625 -13.320312 3.523438 -18.515625 4.640625 -23.046875 C 5.109375 -23.578125 5.488281 -24.800781 5.78125 -26.71875 C 4.75 -27.957031 3.320312 -28.390625 1.5 -28.015625 C -0.320312 -27.648438 -1.148438 -27.867188 -0.984375 -28.671875 C -0.816406 -29.472656 0.0234375 -29.875 1.546875 -29.875 C 2.859375 -30.0625 3.988281 -30.15625 4.9375 -30.15625 Z M 4.9375 -30.15625 "/></g></g></g><g fill="rgb(100%, 100%, 100%)" fill-opacity="1"><g transform="translate(284.513744, 172.826401)"><g><path d="M 15.625 -27.640625 C 18.632812 -27.972656 20.015625 -25.800781 19.765625 -21.125 C 18.753906 -16.507812 18.25 -13.691406 18.25 -12.671875 C 18.25 -11.453125 18.613281 -10.8125 19.34375 -10.75 C 20.632812 -10.75 23.3125 -11.675781 27.375 -13.53125 L 27.5625 -13.09375 L 27.5625 -12.015625 C 27.226562 -10.941406 25.722656 -9.859375 23.046875 -8.765625 C 22.160156 -8.046875 20.992188 -7.6875 19.546875 -7.6875 C 17.222656 -7.914062 15.707031 -8.988281 15 -10.90625 C 14.289062 -12.820312 13.9375 -14.210938 13.9375 -15.078125 L 13.71875 -15.078125 C 10.320312 -9.003906 7.351562 -5.96875 4.8125 -5.96875 C 4.21875 -5.96875 3.859375 -5.96875 3.734375 -5.96875 C 2.171875 -5.96875 0.804688 -7.363281 -0.359375 -10.15625 C -1.535156 -12.957031 -0.0351562 -16.695312 4.140625 -21.375 C 8.941406 -24.832031 11.703125 -26.5625 12.421875 -26.5625 C 14.421875 -27.28125 15.488281 -27.640625 15.625 -27.640625 Z M 2.875 -10.3125 L 3.484375 -9.890625 C 6.890625 -11.617188 9.300781 -13.71875 10.71875 -16.1875 C 12.132812 -18.65625 12.84375 -20.097656 12.84375 -20.515625 L 12.84375 -21.125 L 12.609375 -21.125 C 8.773438 -19.957031 6.191406 -17.953125 4.859375 -15.109375 C 3.535156 -12.265625 2.875 -10.664062 2.875 -10.3125 Z M 2.875 -10.3125 "/></g></g></g><g fill="rgb(100%, 100%, 100%)" fill-opacity="1"><g transform="translate(110.852137, 223.898863)"><g><path d="M 1.03125 0 L 1.03125 -9.9375 L 5.25 -9.9375 C 5.707031 -9.9375 6.128906 -9.835938 6.515625 -9.640625 C 6.898438 -9.453125 7.234375 -9.203125 7.515625 -8.890625 C 7.796875 -8.578125 8.015625 -8.222656 8.171875 -7.828125 C 8.328125 -7.429688 8.40625 -7.035156 8.40625 -6.640625 C 8.40625 -6.210938 8.332031 -5.800781 8.1875 -5.40625 C 8.039062 -5.007812 7.832031 -4.65625 7.5625 -4.34375 C 7.289062 -4.039062 6.960938 -3.796875 6.578125 -3.609375 C 6.191406 -3.421875 5.769531 -3.328125 5.3125 -3.328125 L 2.96875 -3.328125 L 2.96875 0 Z M 2.96875 -5.03125 L 5.203125 -5.03125 C 5.554688 -5.03125 5.851562 -5.171875 6.09375 -5.453125 C 6.332031 -5.742188 6.453125 -6.140625 6.453125 -6.640625 C 6.453125 -6.890625 6.414062 -7.113281 6.34375 -7.3125 C 6.269531 -7.507812 6.171875 -7.675781 6.046875 -7.8125 C 5.921875 -7.957031 5.773438 -8.066406 5.609375 -8.140625 C 5.453125 -8.210938 5.289062 -8.25 5.125 -8.25 L 2.96875 -8.25 Z M 2.96875 -5.03125 "/></g></g></g><g fill="rgb(100%, 100%, 100%)" fill-opacity="1"><g transform="translate(119.569273, 223.898863)"><g><path d="M 1.03125 0 L 1.03125 -9.9375 L 2.96875 -9.9375 L 2.96875 0 Z M 1.03125 0 "/></g></g></g><g fill="rgb(100%, 100%, 100%)" fill-opacity="1"><g transform="translate(123.571043, 223.898863)"><g><path d="M 0.421875 -1.453125 L 6.03125 -8.25 L 0.578125 -8.25 L 0.578125 -9.9375 L 8.265625 -9.9375 L 8.265625 -8.484375 L 2.828125 -1.6875 L 8.296875 -1.6875 L 8.296875 0 L 0.421875 0 Z M 0.421875 -1.453125 "/></g></g></g><g fill="rgb(100%, 100%, 100%)" fill-opacity="1"><g transform="translate(132.34414, 223.898863)"><g><path d="M 0.421875 -1.453125 L 6.03125 -8.25 L 0.578125 -8.25 L 0.578125 -9.9375 L 8.265625 -9.9375 L 8.265625 -8.484375 L 2.828125 -1.6875 L 8.296875 -1.6875 L 8.296875 0 L 0.421875 0 Z M 0.421875 -1.453125 "/></g></g></g><g fill="rgb(100%, 100%, 100%)" fill-opacity="1"><g transform="translate(141.117237, 223.898863)"><g><path d="M 7.9375 -1.6875 L 7.9375 0 L 1.03125 0 L 1.03125 -9.9375 L 7.8125 -9.9375 L 7.8125 -8.25 L 2.96875 -8.25 L 2.96875 -5.859375 L 7.15625 -5.859375 L 7.15625 -4.28125 L 2.96875 -4.28125 L 2.96875 -1.6875 Z M 7.9375 -1.6875 "/></g></g></g><g fill="rgb(100%, 100%, 100%)" fill-opacity="1"><g transform="translate(149.526539, 223.898863)"><g><path d="M 1.03125 0 L 1.03125 -9.9375 L 5.4375 -9.9375 C 5.894531 -9.9375 6.316406 -9.835938 6.703125 -9.640625 C 7.085938 -9.453125 7.421875 -9.203125 7.703125 -8.890625 C 7.984375 -8.578125 8.203125 -8.222656 8.359375 -7.828125 C 8.515625 -7.429688 8.59375 -7.035156 8.59375 -6.640625 C 8.59375 -5.992188 8.429688 -5.40625 8.109375 -4.875 C 7.785156 -4.351562 7.347656 -3.972656 6.796875 -3.734375 L 9.078125 0 L 6.90625 0 L 4.875 -3.328125 L 2.96875 -3.328125 L 2.96875 0 Z M 2.96875 -5.03125 L 5.390625 -5.03125 C 5.566406 -5.03125 5.734375 -5.070312 5.890625 -5.15625 C 6.046875 -5.238281 6.175781 -5.351562 6.28125 -5.5 C 6.394531 -5.644531 6.484375 -5.8125 6.546875 -6 C 6.617188 -6.195312 6.65625 -6.410156 6.65625 -6.640625 C 6.65625 -6.867188 6.613281 -7.082031 6.53125 -7.28125 C 6.457031 -7.476562 6.359375 -7.648438 6.234375 -7.796875 C 6.109375 -7.941406 5.960938 -8.050781 5.796875 -8.125 C 5.640625 -8.207031 5.476562 -8.25 5.3125 -8.25 L 2.96875 -8.25 Z M 2.96875 -5.03125 "/></g></g></g><g fill="rgb(100%, 100%, 100%)" fill-opacity="1"><g transform="translate(158.83134, 223.898863)"><g><path d="M 1.03125 0 L 1.03125 -9.9375 L 2.96875 -9.9375 L 2.96875 0 Z M 2.484375 -10.78125 L 1.28125 -11.140625 L 2.03125 -12.8125 L 3.78125 -12.8125 Z M 2.484375 -10.78125 "/></g></g></g><g fill="rgb(100%, 100%, 100%)" fill-opacity="1"><g transform="translate(162.83311, 223.898863)"><g><path d="M 3.859375 -9.9375 L 5.578125 -9.9375 L 9.359375 0 L 7.359375 0 L 6.4375 -2.484375 L 2.96875 -2.484375 L 2.0625 0 L 0.0625 0 Z M 6.09375 -3.84375 L 4.71875 -7.734375 L 3.296875 -3.84375 Z M 6.09375 -3.84375 "/></g></g></g><g fill="rgb(100%, 100%, 100%)" fill-opacity="1"><g transform="translate(172.235861, 223.898863)"><g/></g></g><g fill="rgb(100%, 100%, 100%)" fill-opacity="1"><g transform="translate(175.593992, 223.898863)"><g><path d="M 7.5 0 L 6.71875 -0.828125 C 6.3125 -0.503906 5.867188 -0.257812 5.390625 -0.09375 C 4.910156 0.0625 4.421875 0.140625 3.921875 0.140625 C 3.410156 0.140625 2.945312 0.0625 2.53125 -0.09375 C 2.113281 -0.257812 1.757812 -0.472656 1.46875 -0.734375 C 1.175781 -1.003906 0.953125 -1.316406 0.796875 -1.671875 C 0.640625 -2.035156 0.5625 -2.414062 0.5625 -2.8125 C 0.5625 -3.125 0.609375 -3.410156 0.703125 -3.671875 C 0.796875 -3.929688 0.921875 -4.171875 1.078125 -4.390625 C 1.242188 -4.609375 1.429688 -4.8125 1.640625 -5 C 1.847656 -5.1875 2.070312 -5.359375 2.3125 -5.515625 C 1.90625 -5.960938 1.617188 -6.347656 1.453125 -6.671875 C 1.296875 -6.992188 1.21875 -7.332031 1.21875 -7.6875 C 1.21875 -8.039062 1.285156 -8.363281 1.421875 -8.65625 C 1.566406 -8.945312 1.757812 -9.195312 2 -9.40625 C 2.238281 -9.625 2.523438 -9.785156 2.859375 -9.890625 C 3.191406 -10.003906 3.554688 -10.0625 3.953125 -10.0625 C 4.296875 -10.0625 4.625 -10.015625 4.9375 -9.921875 C 5.257812 -9.828125 5.539062 -9.6875 5.78125 -9.5 C 6.019531 -9.320312 6.210938 -9.09375 6.359375 -8.8125 C 6.515625 -8.539062 6.59375 -8.226562 6.59375 -7.875 C 6.59375 -7.332031 6.429688 -6.859375 6.109375 -6.453125 C 5.796875 -6.046875 5.394531 -5.664062 4.90625 -5.3125 L 6.796875 -3.3125 C 6.941406 -3.613281 7.050781 -3.941406 7.125 -4.296875 C 7.207031 -4.648438 7.25 -5.035156 7.25 -5.453125 L 8.78125 -5.453125 C 8.769531 -4.785156 8.6875 -4.179688 8.53125 -3.640625 C 8.382812 -3.097656 8.175781 -2.601562 7.90625 -2.15625 L 9.96875 0 Z M 4.109375 -1.328125 C 4.679688 -1.328125 5.21875 -1.519531 5.71875 -1.90625 L 3.421875 -4.328125 C 3.085938 -4.085938 2.828125 -3.847656 2.640625 -3.609375 C 2.453125 -3.367188 2.359375 -3.097656 2.359375 -2.796875 C 2.359375 -2.597656 2.398438 -2.40625 2.484375 -2.21875 C 2.578125 -2.039062 2.695312 -1.882812 2.84375 -1.75 C 3 -1.625 3.179688 -1.519531 3.390625 -1.4375 C 3.609375 -1.363281 3.847656 -1.328125 4.109375 -1.328125 Z M 2.921875 -7.734375 C 2.921875 -7.648438 2.9375 -7.566406 2.96875 -7.484375 C 3 -7.410156 3.046875 -7.328125 3.109375 -7.234375 C 3.171875 -7.140625 3.253906 -7.03125 3.359375 -6.90625 C 3.472656 -6.789062 3.613281 -6.644531 3.78125 -6.46875 C 4.132812 -6.707031 4.40625 -6.929688 4.59375 -7.140625 C 4.78125 -7.359375 4.875 -7.59375 4.875 -7.84375 C 4.875 -8.09375 4.785156 -8.296875 4.609375 -8.453125 C 4.441406 -8.609375 4.222656 -8.6875 3.953125 -8.6875 C 3.648438 -8.6875 3.398438 -8.59375 3.203125 -8.40625 C 3.015625 -8.226562 2.921875 -8.003906 2.921875 -7.734375 Z M 2.921875 -7.734375 "/></g></g></g><g fill="rgb(100%, 100%, 100%)" fill-opacity="1"><g transform="translate(185.556428, 223.898863)"><g/></g></g><g fill="rgb(100%, 100%, 100%)" fill-opacity="1"><g transform="translate(188.914559, 223.898863)"><g><path d="M 0.4375 -5.046875 C 0.4375 -5.648438 0.546875 -6.25 0.765625 -6.84375 C 0.984375 -7.4375 1.300781 -7.960938 1.71875 -8.421875 C 2.144531 -8.890625 2.660156 -9.269531 3.265625 -9.5625 C 3.867188 -9.851562 4.554688 -10 5.328125 -10 C 6.242188 -10 7.035156 -9.796875 7.703125 -9.390625 C 8.367188 -8.992188 8.867188 -8.472656 9.203125 -7.828125 L 7.71875 -6.796875 C 7.582031 -7.078125 7.421875 -7.3125 7.234375 -7.5 C 7.046875 -7.695312 6.84375 -7.851562 6.625 -7.96875 C 6.414062 -8.082031 6.191406 -8.160156 5.953125 -8.203125 C 5.722656 -8.253906 5.5 -8.28125 5.28125 -8.28125 C 4.789062 -8.28125 4.363281 -8.179688 4 -7.984375 C 3.644531 -7.796875 3.347656 -7.546875 3.109375 -7.234375 C 2.878906 -6.921875 2.703125 -6.566406 2.578125 -6.171875 C 2.453125 -5.773438 2.390625 -5.378906 2.390625 -4.984375 C 2.390625 -4.546875 2.457031 -4.125 2.59375 -3.71875 C 2.738281 -3.3125 2.9375 -2.953125 3.1875 -2.640625 C 3.445312 -2.335938 3.753906 -2.09375 4.109375 -1.90625 C 4.472656 -1.71875 4.875 -1.625 5.3125 -1.625 C 5.53125 -1.625 5.757812 -1.648438 6 -1.703125 C 6.25 -1.765625 6.484375 -1.851562 6.703125 -1.96875 C 6.921875 -2.09375 7.125 -2.25 7.3125 -2.4375 C 7.5 -2.632812 7.644531 -2.867188 7.75 -3.140625 L 9.34375 -2.21875 C 9.175781 -1.851562 8.945312 -1.523438 8.65625 -1.234375 C 8.363281 -0.953125 8.03125 -0.710938 7.65625 -0.515625 C 7.289062 -0.316406 6.898438 -0.164062 6.484375 -0.0625 C 6.066406 0.03125 5.65625 0.078125 5.25 0.078125 C 4.539062 0.078125 3.890625 -0.0664062 3.296875 -0.359375 C 2.710938 -0.660156 2.207031 -1.050781 1.78125 -1.53125 C 1.351562 -2.007812 1.019531 -2.554688 0.78125 -3.171875 C 0.550781 -3.785156 0.4375 -4.410156 0.4375 -5.046875 Z M 0.4375 -5.046875 "/></g></g></g><g fill="rgb(100%, 100%, 100%)" fill-opacity="1"><g transform="translate(198.513199, 223.898863)"><g><path d="M 3.859375 -9.9375 L 5.578125 -9.9375 L 9.359375 0 L 7.359375 0 L 6.4375 -2.484375 L 2.96875 -2.484375 L 2.0625 0 L 0.0625 0 Z M 6.09375 -3.84375 L 4.71875 -7.734375 L 3.296875 -3.84375 Z M 6.09375 -3.84375 "/></g></g></g><g fill="rgb(100%, 100%, 100%)" fill-opacity="1"><g transform="translate(207.915951, 223.898863)"><g><path d="M 1.03125 0 L 1.03125 -9.9375 L 7.71875 -9.9375 L 7.71875 -8.25 L 2.96875 -8.25 L 2.96875 -5.6875 L 6.921875 -5.6875 L 6.921875 -4.109375 L 2.96875 -4.109375 L 2.96875 0 Z M 1.03125 0 "/></g></g></g><g fill="rgb(100%, 100%, 100%)" fill-opacity="1"><g transform="translate(215.947471, 223.898863)"><g><path d="M 7.9375 -1.6875 L 7.9375 0 L 1.03125 0 L 1.03125 -9.9375 L 7.8125 -9.9375 L 7.8125 -8.25 L 2.96875 -8.25 L 2.96875 -5.859375 L 7.15625 -5.859375 L 7.15625 -4.28125 L 2.96875 -4.28125 L 2.96875 -1.6875 Z M 7.9375 -1.6875 "/></g></g></g><g fill="rgb(100%, 100%, 100%)" fill-opacity="1"><g transform="translate(224.356772, 223.898863)"><g><path d="M 8.46875 -8.25 L 5.296875 -8.25 L 5.296875 0 L 3.375 0 L 3.375 -8.25 L 0.203125 -8.25 L 0.203125 -9.9375 L 8.46875 -9.9375 Z M 8.46875 -8.25 "/></g></g></g><g fill="rgb(100%, 100%, 100%)" fill-opacity="1"><g transform="translate(233.017935, 223.898863)"><g><path d="M 7.9375 -1.6875 L 7.9375 0 L 1.03125 0 L 1.03125 -9.9375 L 7.8125 -9.9375 L 7.8125 -8.25 L 2.96875 -8.25 L 2.96875 -5.859375 L 7.15625 -5.859375 L 7.15625 -4.28125 L 2.96875 -4.28125 L 2.96875 -1.6875 Z M 7.9375 -1.6875 "/></g></g></g><g fill="rgb(100%, 100%, 100%)" fill-opacity="1"><g transform="translate(241.427236, 223.898863)"><g><path d="M 1.03125 0 L 1.03125 -9.9375 L 5.4375 -9.9375 C 5.894531 -9.9375 6.316406 -9.835938 6.703125 -9.640625 C 7.085938 -9.453125 7.421875 -9.203125 7.703125 -8.890625 C 7.984375 -8.578125 8.203125 -8.222656 8.359375 -7.828125 C 8.515625 -7.429688 8.59375 -7.035156 8.59375 -6.640625 C 8.59375 -5.992188 8.429688 -5.40625 8.109375 -4.875 C 7.785156 -4.351562 7.347656 -3.972656 6.796875 -3.734375 L 9.078125 0 L 6.90625 0 L 4.875 -3.328125 L 2.96875 -3.328125 L 2.96875 0 Z M 2.96875 -5.03125 L 5.390625 -5.03125 C 5.566406 -5.03125 5.734375 -5.070312 5.890625 -5.15625 C 6.046875 -5.238281 6.175781 -5.351562 6.28125 -5.5 C 6.394531 -5.644531 6.484375 -5.8125 6.546875 -6 C 6.617188 -6.195312 6.65625 -6.410156 6.65625 -6.640625 C 6.65625 -6.867188 6.613281 -7.082031 6.53125 -7.28125 C 6.457031 -7.476562 6.359375 -7.648438 6.234375 -7.796875 C 6.109375 -7.941406 5.960938 -8.050781 5.796875 -8.125 C 5.640625 -8.207031 5.476562 -8.25 5.3125 -8.25 L 2.96875 -8.25 Z M 2.96875 -5.03125 "/></g></g></g><g fill="rgb(100%, 100%, 100%)" fill-opacity="1"><g transform="translate(250.732037, 223.898863)"><g><path d="M 1.03125 0 L 1.03125 -9.9375 L 2.96875 -9.9375 L 2.96875 0 Z M 2.484375 -10.78125 L 1.28125 -11.140625 L 2.03125 -12.8125 L 3.78125 -12.8125 Z M 2.484375 -10.78125 "/></g></g></g><g fill="rgb(100%, 100%, 100%)" fill-opacity="1"><g transform="translate(254.733807, 223.898863)"><g><path d="M 3.859375 -9.9375 L 5.578125 -9.9375 L 9.359375 0 L 7.359375 0 L 6.4375 -2.484375 L 2.96875 -2.484375 L 2.0625 0 L 0.0625 0 Z M 6.09375 -3.84375 L 4.71875 -7.734375 L 3.296875 -3.84375 Z M 6.09375 -3.84375 "/></g></g></g></svg>