<svg xmlns="http://www.w3.org/2000/svg" xmlns:xlink="http://www.w3.org/1999/xlink" width="500" zoomAndPan="magnify" viewBox="0 0 375 374.999991" height="500" preserveAspectRatio="xMidYMid meet" version="1.0"><defs><g><g id="id1"/><g id="id2"/><g id="id3"/><g id="id4"/><g id="id5"/><g id="id6"/><g id="id7"/><g id="id8"/><g id="id9"/><g id="id10"/><g id="id11"/><g id="id12"/><g id="id13"/><g id="id14"/><g id="id15"/><g id="id16"/><g id="id17"/><g id="id18"/><g id="id19"/></g><clipPath id="id20"><path d="M 63.710938 63.710938 L 311.210938 63.710938 L 311.210938 311.210938 L 63.710938 311.210938 Z M 63.710938 63.710938 " clip-rule="nonzero"/></clipPath><clipPath id="id21"><path d="M 107.589844 107.589844 L 267.339844 107.589844 L 267.339844 267.339844 L 107.589844 267.339844 Z M 107.589844 107.589844 " clip-rule="nonzero"/></clipPath><clipPath id="id22"><path d="M 77.847656 178.527344 L 96.597656 178.527344 L 96.597656 196.527344 L 77.847656 196.527344 Z M 77.847656 178.527344 " clip-rule="nonzero"/></clipPath><clipPath id="id23"><path d="M 278.261719 178.527344 L 297.011719 178.527344 L 297.011719 196.527344 L 278.261719 196.527344 Z M 278.261719 178.527344 " clip-rule="nonzero"/></clipPath><clipPath id="id24"><path d="M 127.242188 139.296875 L 247.992188 139.296875 L 247.992188 236.046875 L 127.242188 236.046875 Z M 127.242188 139.296875 " clip-rule="nonzero"/></clipPath></defs><rect x="-37.5" width="450" fill="rgb(100%, 100%, 100%)" y="-37.499999" height="449.999989" fill-opacity="1"/><rect x="-37.5" width="450" fill="rgb(100%, 100%, 100%)" y="-37.499999" height="449.999989" fill-opacity="1"/><rect x="-37.5" width="450" fill="rgb(100%, 100%, 100%)" y="-37.499999" height="449.999989" fill-opacity="1"/><rect x="-37.5" width="450" fill="rgb(100%, 100%, 100%)" y="-37.499999" height="449.999989" fill-opacity="1"/><path fill="rgb(13.328552%, 13.328552%, 13.328552%)" d="M 187.375 56.125 C 114.886719 56.125 56.125 114.886719 56.125 187.375 C 56.125 259.863281 114.886719 318.625 187.375 318.625 C 259.863281 318.625 318.625 259.863281 318.625 187.375 C 318.625 114.886719 259.863281 56.125 187.375 56.125 " fill-opacity="1" fill-rule="nonzero"/><path fill="rgb(100%, 100%, 100%)" d="M 187.472656 60.722656 C 117.46875 60.722656 60.722656 117.46875 60.722656 187.472656 C 60.722656 257.476562 117.46875 314.222656 187.472656 314.222656 C 257.476562 314.222656 314.222656 257.476562 314.222656 187.472656 C 314.222656 117.46875 257.476562 60.722656 187.472656 60.722656 " fill-opacity="1" fill-rule="nonzero"/><g clip-path="url(#id20)"><path fill="rgb(13.328552%, 13.328552%, 13.328552%)" d="M 187.460938 311.210938 C 119.226562 311.210938 63.710938 255.699219 63.710938 187.460938 C 63.710938 119.226562 119.226562 63.710938 187.460938 63.710938 C 255.699219 63.710938 311.210938 119.226562 311.210938 187.460938 C 311.210938 255.699219 255.699219 311.210938 187.460938 311.210938 Z M 187.460938 65.90625 C 120.433594 65.90625 65.90625 120.433594 65.90625 187.460938 C 65.90625 254.488281 120.433594 309.015625 187.460938 309.015625 C 254.488281 309.015625 309.015625 254.488281 309.015625 187.460938 C 309.015625 120.433594 254.488281 65.90625 187.460938 65.90625 Z M 187.460938 65.90625 " fill-opacity="1" fill-rule="nonzero"/></g><g clip-path="url(#id21)"><path fill="rgb(13.328552%, 13.328552%, 13.328552%)" d="M 187.46875 267.339844 C 143.421875 267.339844 107.589844 231.507812 107.589844 187.46875 C 107.589844 143.421875 143.421875 107.589844 187.46875 107.589844 C 231.507812 107.589844 267.339844 143.421875 267.339844 187.46875 C 267.339844 231.507812 231.507812 267.339844 187.46875 267.339844 Z M 187.46875 109.007812 C 144.203125 109.007812 109.007812 144.203125 109.007812 187.46875 C 109.007812 230.730469 144.203125 265.925781 187.46875 265.925781 C 230.730469 265.925781 265.925781 230.730469 265.925781 187.46875 C 265.925781 144.203125 230.730469 109.007812 187.46875 109.007812 Z M 187.46875 109.007812 " fill-opacity="1" fill-rule="nonzero"/></g><path fill="rgb(13.328552%, 13.328552%, 13.328552%)" d="M 187.371094 111.996094 C 145.742188 111.996094 111.996094 145.742188 111.996094 187.371094 C 111.996094 229 145.742188 262.746094 187.371094 262.746094 C 229 262.746094 262.746094 229 262.746094 187.371094 C 262.746094 145.742188 229 111.996094 187.371094 111.996094 " fill-opacity="1" fill-rule="nonzero"/><g clip-path="url(#id22)"><path fill="rgb(13.328552%, 13.328552%, 13.328552%)" d="M 87.222656 192.992188 L 93.015625 196.527344 L 91.484375 189.867188 L 96.597656 185.390625 L 89.855469 184.804688 L 87.222656 178.527344 L 84.589844 184.804688 L 77.851562 185.390625 L 82.964844 189.867188 L 81.429688 196.527344 Z M 87.222656 192.992188 " fill-opacity="1" fill-rule="nonzero"/></g><g clip-path="url(#id23)"><path fill="rgb(13.328552%, 13.328552%, 13.328552%)" d="M 287.636719 192.992188 L 293.425781 196.527344 L 291.894531 189.867188 L 297.007812 185.390625 L 290.269531 184.804688 L 287.636719 178.527344 L 285 184.804688 L 278.261719 185.390625 L 283.375 189.867188 L 281.84375 196.527344 Z M 287.636719 192.992188 " fill-opacity="1" fill-rule="nonzero"/></g><g clip-path="url(#id24)"><path fill="rgb(100%, 100%, 100%)" d="M 229.402344 163.484375 C 221.050781 149.039062 205.480469 139.296875 187.617188 139.296875 C 169.753906 139.296875 154.1875 149.039062 145.835938 163.484375 L 127.246094 163.484375 L 139.320312 187.671875 L 127.246094 211.859375 L 145.835938 211.859375 C 154.1875 226.300781 169.753906 236.046875 187.617188 236.046875 C 205.480469 236.046875 221.050781 226.300781 229.402344 211.859375 L 247.992188 211.859375 L 235.917969 187.671875 L 247.992188 163.484375 Z M 187.617188 143.328125 C 203.121094 143.328125 216.765625 151.363281 224.679688 163.484375 L 150.558594 163.484375 C 158.472656 151.363281 172.117188 143.328125 187.617188 143.328125 Z M 187.617188 232.015625 C 172.117188 232.015625 158.472656 223.976562 150.558594 211.859375 L 224.679688 211.859375 C 216.765625 223.976562 203.121094 232.015625 187.617188 232.015625 Z M 231.417969 187.671875 L 241.480469 207.828125 L 133.757812 207.828125 L 143.820312 187.671875 L 133.757812 167.515625 L 241.480469 167.515625 Z M 231.417969 187.671875 " fill-opacity="1" fill-rule="nonzero"/></g><path fill="rgb(100%, 100%, 100%)" d="M 155.421875 175.578125 L 159.445312 175.578125 L 159.445312 199.765625 L 155.421875 199.765625 Z M 155.421875 175.578125 " fill-opacity="1" fill-rule="nonzero"/><path fill="rgb(100%, 100%, 100%)" d="M 163.46875 199.765625 L 179.570312 199.765625 L 179.570312 175.578125 L 163.46875 175.578125 Z M 167.496094 179.609375 L 175.542969 179.609375 L 175.542969 195.734375 L 167.496094 195.734375 Z M 167.496094 179.609375 " fill-opacity="1" fill-rule="nonzero"/><path fill="rgb(100%, 100%, 100%)" d="M 183.59375 199.765625 L 199.695312 199.765625 L 199.695312 175.578125 L 183.59375 175.578125 Z M 187.617188 179.609375 L 195.667969 179.609375 L 195.667969 195.734375 L 187.617188 195.734375 Z M 187.617188 179.609375 " fill-opacity="1" fill-rule="nonzero"/><path fill="rgb(100%, 100%, 100%)" d="M 203.71875 175.578125 L 207.742188 175.578125 L 207.742188 179.609375 L 203.71875 179.609375 Z M 203.71875 175.578125 " fill-opacity="1" fill-rule="nonzero"/><path fill="rgb(100%, 100%, 100%)" d="M 219.816406 195.734375 L 223.84375 195.734375 L 223.84375 199.765625 L 219.816406 199.765625 Z M 219.816406 195.734375 " fill-opacity="1" fill-rule="nonzero"/><path fill="rgb(100%, 100%, 100%)" d="M 203.71875 199.765625 L 207.742188 199.765625 L 223.84375 175.578125 L 219.816406 175.578125 Z M 203.71875 199.765625 " fill-opacity="1" fill-rule="nonzero"/><g fill="rgb(13.328552%, 13.328552%, 13.328552%)" fill-opacity="1"><g transform="translate(108.900325, 138.836736)"><g><path d="M 3.96875 -5.640625 L 1.15625 -1.65625 L -15.9375 -13.671875 L -13.125 -17.65625 Z M 3.96875 -5.640625 "/></g></g></g><g fill="rgb(13.328552%, 13.328552%, 13.328552%)" fill-opacity="1"><g transform="translate(112.643543, 132.432238)"><g><path d="M -1.0625 -29.078125 L 14.015625 -14.625 L 12.265625 -12.796875 C 12.003906 -12.523438 11.742188 -12.34375 11.484375 -12.25 C 11.222656 -12.15625 10.90625 -12.113281 10.53125 -12.125 L -5.296875 -13.640625 C -4.992188 -13.410156 -4.710938 -13.179688 -4.453125 -12.953125 C -4.191406 -12.722656 -3.953125 -12.503906 -3.734375 -12.296875 L 4.359375 -4.546875 L 1.390625 -1.453125 L -13.6875 -15.90625 L -11.90625 -17.765625 C -11.757812 -17.910156 -11.628906 -18.023438 -11.515625 -18.109375 C -11.410156 -18.191406 -11.300781 -18.253906 -11.1875 -18.296875 C -11.070312 -18.347656 -10.941406 -18.382812 -10.796875 -18.40625 C -10.648438 -18.425781 -10.476562 -18.421875 -10.28125 -18.390625 L 5.65625 -16.875 C 5.34375 -17.125 5.039062 -17.375 4.75 -17.625 C 4.46875 -17.875 4.207031 -18.113281 3.96875 -18.34375 L -4.015625 -26 Z M -1.0625 -29.078125 "/></g></g></g><g fill="rgb(13.328552%, 13.328552%, 13.328552%)" fill-opacity="1"><g transform="translate(126.489302, 117.78257)"><g><path d="M 3.875 -15.75 L 10.015625 -19.921875 L 14.984375 -12.625 C 14.523438 -11.375 13.894531 -10.265625 13.09375 -9.296875 C 12.300781 -8.328125 11.359375 -7.46875 10.265625 -6.71875 C 8.835938 -5.75 7.390625 -5.09375 5.921875 -4.75 C 4.460938 -4.40625 3.050781 -4.34375 1.6875 -4.5625 C 0.320312 -4.78125 -0.953125 -5.269531 -2.140625 -6.03125 C -3.328125 -6.800781 -4.351562 -7.820312 -5.21875 -9.09375 C -6.09375 -10.375 -6.679688 -11.695312 -6.984375 -13.0625 C -7.296875 -14.4375 -7.316406 -15.785156 -7.046875 -17.109375 C -6.785156 -18.441406 -6.242188 -19.703125 -5.421875 -20.890625 C -4.597656 -22.085938 -3.488281 -23.160156 -2.09375 -24.109375 C -1.375 -24.597656 -0.660156 -25 0.046875 -25.3125 C 0.753906 -25.632812 1.445312 -25.875 2.125 -26.03125 C 2.800781 -26.1875 3.457031 -26.273438 4.09375 -26.296875 C 4.738281 -26.316406 5.34375 -26.28125 5.90625 -26.1875 L 5.953125 -23.625 C 5.953125 -23.226562 5.832031 -22.894531 5.59375 -22.625 C 5.351562 -22.363281 4.992188 -22.226562 4.515625 -22.21875 C 4.078125 -22.1875 3.671875 -22.144531 3.296875 -22.09375 C 2.921875 -22.039062 2.554688 -21.957031 2.203125 -21.84375 C 1.847656 -21.726562 1.492188 -21.582031 1.140625 -21.40625 C 0.796875 -21.226562 0.421875 -21 0.015625 -20.71875 C -0.734375 -20.207031 -1.316406 -19.613281 -1.734375 -18.9375 C -2.148438 -18.257812 -2.40625 -17.535156 -2.5 -16.765625 C -2.59375 -16.003906 -2.523438 -15.207031 -2.296875 -14.375 C -2.066406 -13.539062 -1.671875 -12.710938 -1.109375 -11.890625 C -0.472656 -10.960938 0.207031 -10.226562 0.9375 -9.6875 C 1.664062 -9.15625 2.425781 -8.804688 3.21875 -8.640625 C 4.019531 -8.472656 4.828125 -8.476562 5.640625 -8.65625 C 6.460938 -8.832031 7.265625 -9.1875 8.046875 -9.71875 C 8.535156 -10.039062 8.941406 -10.382812 9.265625 -10.75 C 9.585938 -11.113281 9.878906 -11.5 10.140625 -11.90625 L 8.359375 -14.53125 L 6.65625 -13.375 C 6.40625 -13.195312 6.164062 -13.128906 5.9375 -13.171875 C 5.707031 -13.210938 5.519531 -13.332031 5.375 -13.53125 Z M 3.875 -15.75 "/></g></g></g><g fill="rgb(13.328552%, 13.328552%, 13.328552%)" fill-opacity="1"><g transform="translate(141.927685, 107.141894)"><g><path d="M 3.71875 -13.640625 C 4.332031 -13.898438 4.820312 -14.195312 5.1875 -14.53125 C 5.550781 -14.875 5.804688 -15.238281 5.953125 -15.625 C 6.097656 -16.007812 6.15625 -16.410156 6.125 -16.828125 C 6.09375 -17.253906 5.988281 -17.675781 5.8125 -18.09375 C 5.445312 -18.945312 4.882812 -19.488281 4.125 -19.71875 C 3.363281 -19.957031 2.410156 -19.832031 1.265625 -19.34375 L -0.53125 -18.5625 L 1.921875 -12.859375 Z M 17.546875 -7.546875 L 13.515625 -5.8125 C 12.773438 -5.488281 12.117188 -5.539062 11.546875 -5.96875 L 5.96875 -10.171875 C 5.726562 -10.347656 5.488281 -10.453125 5.25 -10.484375 C 5.007812 -10.515625 4.71875 -10.457031 4.375 -10.3125 L 3.234375 -9.8125 L 6.296875 -2.703125 L 1.859375 -0.796875 L -6.390625 -19.984375 L -0.15625 -22.671875 C 1.226562 -23.265625 2.472656 -23.628906 3.578125 -23.765625 C 4.679688 -23.898438 5.648438 -23.847656 6.484375 -23.609375 C 7.316406 -23.367188 8.023438 -22.960938 8.609375 -22.390625 C 9.191406 -21.816406 9.660156 -21.117188 10.015625 -20.296875 C 10.273438 -19.671875 10.441406 -19.046875 10.515625 -18.421875 C 10.585938 -17.804688 10.5625 -17.191406 10.4375 -16.578125 C 10.3125 -15.972656 10.085938 -15.378906 9.765625 -14.796875 C 9.453125 -14.210938 9.035156 -13.675781 8.515625 -13.1875 C 8.867188 -13.15625 9.21875 -13.082031 9.5625 -12.96875 C 9.914062 -12.851562 10.265625 -12.6875 10.609375 -12.46875 Z M 17.546875 -7.546875 "/></g></g></g><g fill="rgb(13.328552%, 13.328552%, 13.328552%)" fill-opacity="1"><g transform="translate(157.60304, 100.346873)"><g><path d="M 2.703125 -18.296875 L 3.84375 -13.546875 L 10.234375 -15.078125 L 11.0625 -11.609375 L 4.671875 -10.078125 L 5.828125 -5.234375 L 14.171875 -7.234375 L 15.046875 -3.609375 L 1.953125 -0.46875 L -2.90625 -20.78125 L 10.1875 -23.921875 L 11.046875 -20.296875 Z M 2.703125 -18.296875 "/></g></g></g><g fill="rgb(13.328552%, 13.328552%, 13.328552%)" fill-opacity="1"><g transform="translate(171.660477, 96.543469)"><g><path d="M 20.421875 -11.46875 C 20.492188 -9.957031 20.300781 -8.550781 19.84375 -7.25 C 19.382812 -5.957031 18.707031 -4.820312 17.8125 -3.84375 C 16.925781 -2.875 15.828125 -2.09375 14.515625 -1.5 C 13.210938 -0.914062 11.75 -0.582031 10.125 -0.5 L 2.015625 -0.09375 L 0.984375 -20.953125 L 9.09375 -21.359375 C 10.71875 -21.441406 12.207031 -21.253906 13.5625 -20.796875 C 14.925781 -20.335938 16.097656 -19.664062 17.078125 -18.78125 C 18.066406 -17.90625 18.851562 -16.84375 19.4375 -15.59375 C 20.019531 -14.34375 20.347656 -12.96875 20.421875 -11.46875 Z M 15.484375 -11.234375 C 15.429688 -12.265625 15.25 -13.1875 14.9375 -14 C 14.625 -14.820312 14.203125 -15.507812 13.671875 -16.0625 C 13.148438 -16.613281 12.519531 -17.023438 11.78125 -17.296875 C 11.039062 -17.578125 10.207031 -17.691406 9.28125 -17.640625 L 6.03125 -17.484375 L 6.6875 -4.078125 L 9.9375 -4.234375 C 10.863281 -4.285156 11.679688 -4.476562 12.390625 -4.8125 C 13.097656 -5.15625 13.6875 -5.625 14.15625 -6.21875 C 14.632812 -6.820312 14.988281 -7.546875 15.21875 -8.390625 C 15.445312 -9.242188 15.535156 -10.191406 15.484375 -11.234375 Z M 15.484375 -11.234375 "/></g></g></g><g fill="rgb(13.328552%, 13.328552%, 13.328552%)" fill-opacity="1"><g transform="translate(191.893047, 95.905082)"><g><path d="M 6.859375 0.6875 L 2 0.203125 L 4.078125 -20.578125 L 8.9375 -20.09375 Z M 6.859375 0.6875 "/></g></g></g><g fill="rgb(13.328552%, 13.328552%, 13.328552%)" fill-opacity="1"><g transform="translate(199.537091, 96.358007)"><g><path d="M 10.5 -15.21875 L 9.421875 -10.46875 L 15.84375 -9.015625 L 15.0625 -5.515625 L 8.640625 -6.96875 L 7.546875 -2.125 L 15.921875 -0.234375 L 15.09375 3.40625 L 1.96875 0.4375 L 6.578125 -19.9375 L 19.703125 -16.96875 L 18.875 -13.328125 Z M 10.5 -15.21875 "/></g></g></g><g fill="rgb(13.328552%, 13.328552%, 13.328552%)" fill-opacity="1"><g transform="translate(213.816827, 99.124395)"><g><path d="M 26.890625 -11.078125 L 18.5625 8.078125 L 16.265625 7.078125 C 15.921875 6.921875 15.65625 6.738281 15.46875 6.53125 C 15.289062 6.320312 15.144531 6.035156 15.03125 5.671875 L 10.96875 -9.703125 C 10.851562 -9.335938 10.734375 -8.988281 10.609375 -8.65625 C 10.492188 -8.332031 10.375 -8.03125 10.25 -7.75 L 5.78125 2.515625 L 1.84375 0.796875 L 10.171875 -18.359375 L 12.53125 -17.328125 C 12.71875 -17.242188 12.875 -17.160156 13 -17.078125 C 13.125 -17.003906 13.226562 -16.921875 13.3125 -16.828125 C 13.394531 -16.742188 13.46875 -16.632812 13.53125 -16.5 C 13.59375 -16.375 13.644531 -16.207031 13.6875 -16 L 17.796875 -0.546875 C 17.921875 -0.921875 18.046875 -1.285156 18.171875 -1.640625 C 18.304688 -1.992188 18.441406 -2.328125 18.578125 -2.640625 L 22.984375 -12.78125 Z M 26.890625 -11.078125 "/></g></g></g><g fill="rgb(13.328552%, 13.328552%, 13.328552%)" fill-opacity="1"><g transform="translate(232.406853, 107.255541)"><g><path d="M 23.703125 -4.390625 L 18.859375 -7.71875 L 9.1875 6.328125 L 5.203125 3.578125 L 14.875 -10.46875 L 10.03125 -13.796875 L 12.203125 -16.953125 L 25.875 -7.546875 Z M 23.703125 -4.390625 "/></g></g></g><g fill="rgb(13.328552%, 13.328552%, 13.328552%)" fill-opacity="1"><g transform="translate(245.446047, 116.116788)"><g><path d="M 16.859375 -7.5625 L 13.484375 -4.0625 L 18.21875 0.5 L 15.734375 3.078125 L 11 -1.484375 L 7.546875 2.09375 L 13.71875 8.046875 L 11.125 10.734375 L 1.453125 1.40625 L 15.953125 -13.625 L 25.625 -4.296875 L 23.03125 -1.609375 Z M 16.859375 -7.5625 "/></g></g></g><g fill="rgb(13.328552%, 13.328552%, 13.328552%)" fill-opacity="1"><g transform="translate(256.17851, 126.320894)"><g><path d="M 21.453125 0.796875 C 21.171875 0.828125 20.9375 0.8125 20.75 0.75 C 20.570312 0.695312 20.410156 0.570312 20.265625 0.375 C 20.128906 0.195312 20.039062 -0.03125 20 -0.3125 C 19.957031 -0.601562 19.910156 -0.925781 19.859375 -1.28125 C 19.804688 -1.644531 19.707031 -2.03125 19.5625 -2.4375 C 19.425781 -2.851562 19.203125 -3.273438 18.890625 -3.703125 C 18.335938 -4.421875 17.769531 -4.835938 17.1875 -4.953125 C 16.613281 -5.078125 16.066406 -4.941406 15.546875 -4.546875 C 15.203125 -4.296875 15 -3.976562 14.9375 -3.59375 C 14.882812 -3.21875 14.910156 -2.796875 15.015625 -2.328125 C 15.117188 -1.859375 15.269531 -1.351562 15.46875 -0.8125 C 15.675781 -0.269531 15.867188 0.296875 16.046875 0.890625 C 16.234375 1.484375 16.382812 2.082031 16.5 2.6875 C 16.625 3.300781 16.644531 3.910156 16.5625 4.515625 C 16.476562 5.128906 16.269531 5.726562 15.9375 6.3125 C 15.613281 6.90625 15.101562 7.460938 14.40625 7.984375 C 13.632812 8.566406 12.8125 8.976562 11.9375 9.21875 C 11.070312 9.457031 10.195312 9.507812 9.3125 9.375 C 8.425781 9.238281 7.554688 8.90625 6.703125 8.375 C 5.859375 7.851562 5.082031 7.117188 4.375 6.171875 C 3.976562 5.660156 3.632812 5.09375 3.34375 4.46875 C 3.050781 3.851562 2.8125 3.21875 2.625 2.5625 C 2.4375 1.914062 2.304688 1.269531 2.234375 0.625 C 2.160156 -0.0078125 2.171875 -0.613281 2.265625 -1.1875 L 4.90625 -1.421875 C 5.113281 -1.429688 5.316406 -1.394531 5.515625 -1.3125 C 5.722656 -1.226562 5.890625 -1.097656 6.015625 -0.921875 C 6.191406 -0.691406 6.296875 -0.40625 6.328125 -0.0625 C 6.359375 0.28125 6.394531 0.664062 6.4375 1.09375 C 6.476562 1.519531 6.570312 1.976562 6.71875 2.46875 C 6.863281 2.957031 7.132812 3.460938 7.53125 3.984375 C 8.050781 4.679688 8.613281 5.109375 9.21875 5.265625 C 9.832031 5.421875 10.472656 5.242188 11.140625 4.734375 C 11.535156 4.441406 11.773438 4.097656 11.859375 3.703125 C 11.941406 3.304688 11.929688 2.875 11.828125 2.40625 C 11.722656 1.945312 11.5625 1.445312 11.34375 0.90625 C 11.132812 0.363281 10.925781 -0.191406 10.71875 -0.765625 C 10.519531 -1.335938 10.363281 -1.925781 10.25 -2.53125 C 10.132812 -3.144531 10.117188 -3.757812 10.203125 -4.375 C 10.296875 -5 10.523438 -5.617188 10.890625 -6.234375 C 11.265625 -6.847656 11.835938 -7.445312 12.609375 -8.03125 C 13.234375 -8.5 13.941406 -8.832031 14.734375 -9.03125 C 15.523438 -9.226562 16.335938 -9.253906 17.171875 -9.109375 C 18.003906 -8.972656 18.828125 -8.65625 19.640625 -8.15625 C 20.453125 -7.65625 21.203125 -6.945312 21.890625 -6.03125 C 22.273438 -5.53125 22.609375 -5.003906 22.890625 -4.453125 C 23.179688 -3.898438 23.414062 -3.347656 23.59375 -2.796875 C 23.769531 -2.253906 23.890625 -1.707031 23.953125 -1.15625 C 24.015625 -0.613281 24.019531 -0.09375 23.96875 0.40625 Z M 21.453125 0.796875 "/></g></g></g><g fill="rgb(13.328552%, 13.328552%, 13.328552%)" fill-opacity="1"><g transform="translate(146.943829, 287.065576)"><g><path d="M 7.578125 -8.78125 L 6.515625 -5.640625 L 10.765625 -4.1875 L 10 -1.96875 L 5.75 -3.421875 L 4.09375 1.40625 L 1.203125 0.40625 L 5.453125 -12 L 13.4375 -9.265625 L 12.671875 -7.046875 Z M 7.578125 -8.78125 "/></g></g></g><g fill="rgb(13.328552%, 13.328552%, 13.328552%)" fill-opacity="1"><g transform="translate(157.246485, 290.601616)"><g><path d="M 6.9375 -5.546875 C 7.34375 -5.460938 7.695312 -5.4375 8 -5.46875 C 8.3125 -5.5 8.578125 -5.582031 8.796875 -5.71875 C 9.023438 -5.863281 9.207031 -6.046875 9.34375 -6.265625 C 9.476562 -6.492188 9.578125 -6.753906 9.640625 -7.046875 C 9.765625 -7.597656 9.679688 -8.078125 9.390625 -8.484375 C 9.097656 -8.890625 8.566406 -9.175781 7.796875 -9.34375 L 6.609375 -9.625 L 5.75 -5.828125 Z M 11.703125 2.65625 L 9.015625 2.046875 C 8.515625 1.941406 8.195312 1.675781 8.0625 1.25 L 6.78125 -2.953125 C 6.726562 -3.128906 6.644531 -3.265625 6.53125 -3.359375 C 6.425781 -3.460938 6.257812 -3.539062 6.03125 -3.59375 L 5.28125 -3.765625 L 4.203125 0.953125 L 1.234375 0.28125 L 4.140625 -12.5 L 8.296875 -11.546875 C 9.222656 -11.335938 9.992188 -11.066406 10.609375 -10.734375 C 11.222656 -10.398438 11.695312 -10.015625 12.03125 -9.578125 C 12.363281 -9.148438 12.570312 -8.679688 12.65625 -8.171875 C 12.738281 -7.660156 12.71875 -7.128906 12.59375 -6.578125 C 12.5 -6.171875 12.351562 -5.796875 12.15625 -5.453125 C 11.957031 -5.109375 11.710938 -4.804688 11.421875 -4.546875 C 11.128906 -4.285156 10.796875 -4.066406 10.421875 -3.890625 C 10.046875 -3.722656 9.640625 -3.601562 9.203125 -3.53125 C 9.367188 -3.382812 9.519531 -3.21875 9.65625 -3.03125 C 9.789062 -2.84375 9.898438 -2.632812 9.984375 -2.40625 Z M 11.703125 2.65625 "/></g></g></g><g fill="rgb(13.328552%, 13.328552%, 13.328552%)" fill-opacity="1"><g transform="translate(169.480755, 293.30692)"><g><path d="M 5.5625 -10.1875 L 5.203125 -7.171875 L 9.296875 -6.6875 L 9.03125 -4.453125 L 4.9375 -4.9375 L 4.578125 -1.828125 L 9.9375 -1.1875 L 9.65625 1.140625 L 1.25 0.140625 L 2.78125 -12.875 L 11.1875 -11.875 L 10.921875 -9.546875 Z M 5.5625 -10.1875 "/></g></g></g><g fill="rgb(13.328552%, 13.328552%, 13.328552%)" fill-opacity="1"><g transform="translate(180.360548, 294.549625)"><g><path d="M 8.71875 -10.28125 C 8.625 -10.132812 8.523438 -10.023438 8.421875 -9.953125 C 8.328125 -9.890625 8.203125 -9.859375 8.046875 -9.859375 C 7.910156 -9.859375 7.757812 -9.90625 7.59375 -10 C 7.4375 -10.09375 7.257812 -10.195312 7.0625 -10.3125 C 6.863281 -10.425781 6.632812 -10.523438 6.375 -10.609375 C 6.125 -10.703125 5.835938 -10.75 5.515625 -10.75 C 4.941406 -10.757812 4.507812 -10.644531 4.21875 -10.40625 C 3.9375 -10.175781 3.789062 -9.851562 3.78125 -9.4375 C 3.769531 -9.164062 3.847656 -8.941406 4.015625 -8.765625 C 4.191406 -8.597656 4.410156 -8.445312 4.671875 -8.3125 C 4.941406 -8.1875 5.25 -8.066406 5.59375 -7.953125 C 5.945312 -7.835938 6.304688 -7.710938 6.671875 -7.578125 C 7.035156 -7.441406 7.390625 -7.285156 7.734375 -7.109375 C 8.085938 -6.929688 8.398438 -6.703125 8.671875 -6.421875 C 8.941406 -6.148438 9.15625 -5.816406 9.3125 -5.421875 C 9.46875 -5.023438 9.539062 -4.554688 9.53125 -4.015625 C 9.519531 -3.410156 9.398438 -2.84375 9.171875 -2.3125 C 8.953125 -1.789062 8.640625 -1.335938 8.234375 -0.953125 C 7.835938 -0.566406 7.34375 -0.269531 6.75 -0.0625 C 6.164062 0.144531 5.5 0.242188 4.75 0.234375 C 4.34375 0.222656 3.925781 0.171875 3.5 0.078125 C 3.082031 -0.00390625 2.675781 -0.125 2.28125 -0.28125 C 1.894531 -0.445312 1.53125 -0.640625 1.1875 -0.859375 C 0.84375 -1.078125 0.539062 -1.316406 0.28125 -1.578125 L 1.21875 -2.984375 C 1.289062 -3.078125 1.382812 -3.15625 1.5 -3.21875 C 1.613281 -3.289062 1.738281 -3.328125 1.875 -3.328125 C 2.0625 -3.316406 2.242188 -3.253906 2.421875 -3.140625 C 2.609375 -3.035156 2.8125 -2.910156 3.03125 -2.765625 C 3.257812 -2.617188 3.523438 -2.484375 3.828125 -2.359375 C 4.128906 -2.242188 4.484375 -2.179688 4.890625 -2.171875 C 5.441406 -2.160156 5.875 -2.273438 6.1875 -2.515625 C 6.5 -2.753906 6.660156 -3.132812 6.671875 -3.65625 C 6.671875 -3.96875 6.585938 -4.21875 6.421875 -4.40625 C 6.253906 -4.601562 6.035156 -4.765625 5.765625 -4.890625 C 5.503906 -5.023438 5.195312 -5.144531 4.84375 -5.25 C 4.5 -5.351562 4.144531 -5.46875 3.78125 -5.59375 C 3.414062 -5.71875 3.0625 -5.867188 2.71875 -6.046875 C 2.375 -6.222656 2.066406 -6.453125 1.796875 -6.734375 C 1.535156 -7.015625 1.320312 -7.363281 1.15625 -7.78125 C 1 -8.207031 0.925781 -8.726562 0.9375 -9.34375 C 0.945312 -9.832031 1.050781 -10.304688 1.25 -10.765625 C 1.457031 -11.234375 1.757812 -11.644531 2.15625 -12 C 2.550781 -12.363281 3.03125 -12.648438 3.59375 -12.859375 C 4.15625 -13.066406 4.796875 -13.160156 5.515625 -13.140625 C 5.921875 -13.140625 6.3125 -13.101562 6.6875 -13.03125 C 7.0625 -12.957031 7.421875 -12.859375 7.765625 -12.734375 C 8.109375 -12.609375 8.425781 -12.457031 8.71875 -12.28125 C 9.007812 -12.101562 9.269531 -11.898438 9.5 -11.671875 Z M 8.71875 -10.28125 "/></g></g></g><g fill="rgb(13.328552%, 13.328552%, 13.328552%)" fill-opacity="1"><g transform="translate(191.017379, 294.771141)"><g><path d="M 9.796875 -4.234375 C 9.867188 -4.242188 9.941406 -4.238281 10.015625 -4.21875 C 10.085938 -4.195312 10.15625 -4.15625 10.21875 -4.09375 L 11.515625 -2.9375 C 11.046875 -2.195312 10.429688 -1.617188 9.671875 -1.203125 C 8.921875 -0.796875 8.003906 -0.546875 6.921875 -0.453125 C 5.929688 -0.367188 5.023438 -0.460938 4.203125 -0.734375 C 3.378906 -1.003906 2.671875 -1.410156 2.078125 -1.953125 C 1.492188 -2.492188 1.019531 -3.160156 0.65625 -3.953125 C 0.289062 -4.753906 0.0664062 -5.628906 -0.015625 -6.578125 C -0.0976562 -7.554688 -0.015625 -8.46875 0.234375 -9.3125 C 0.484375 -10.15625 0.863281 -10.894531 1.375 -11.53125 C 1.894531 -12.175781 2.546875 -12.695312 3.328125 -13.09375 C 4.109375 -13.488281 4.972656 -13.726562 5.921875 -13.8125 C 6.421875 -13.851562 6.890625 -13.847656 7.328125 -13.796875 C 7.765625 -13.753906 8.179688 -13.671875 8.578125 -13.546875 C 8.972656 -13.421875 9.332031 -13.265625 9.65625 -13.078125 C 9.988281 -12.890625 10.285156 -12.679688 10.546875 -12.453125 L 9.671875 -11 C 9.609375 -10.914062 9.535156 -10.832031 9.453125 -10.75 C 9.367188 -10.664062 9.242188 -10.617188 9.078125 -10.609375 C 8.972656 -10.597656 8.867188 -10.613281 8.765625 -10.65625 C 8.671875 -10.695312 8.566406 -10.75 8.453125 -10.8125 C 8.335938 -10.875 8.207031 -10.9375 8.0625 -11 C 7.925781 -11.070312 7.765625 -11.132812 7.578125 -11.1875 C 7.398438 -11.25 7.191406 -11.289062 6.953125 -11.3125 C 6.722656 -11.34375 6.445312 -11.34375 6.125 -11.3125 C 5.632812 -11.269531 5.1875 -11.140625 4.78125 -10.921875 C 4.382812 -10.703125 4.046875 -10.398438 3.765625 -10.015625 C 3.492188 -9.628906 3.296875 -9.171875 3.171875 -8.640625 C 3.054688 -8.109375 3.023438 -7.507812 3.078125 -6.84375 C 3.140625 -6.175781 3.28125 -5.585938 3.5 -5.078125 C 3.726562 -4.578125 4.015625 -4.160156 4.359375 -3.828125 C 4.703125 -3.503906 5.09375 -3.265625 5.53125 -3.109375 C 5.96875 -2.960938 6.421875 -2.910156 6.890625 -2.953125 C 7.171875 -2.972656 7.421875 -3.003906 7.640625 -3.046875 C 7.867188 -3.097656 8.078125 -3.160156 8.265625 -3.234375 C 8.460938 -3.316406 8.644531 -3.414062 8.8125 -3.53125 C 8.976562 -3.65625 9.144531 -3.804688 9.3125 -3.984375 C 9.375 -4.054688 9.445312 -4.113281 9.53125 -4.15625 C 9.613281 -4.195312 9.703125 -4.222656 9.796875 -4.234375 Z M 9.796875 -4.234375 "/></g></g></g><g fill="rgb(13.328552%, 13.328552%, 13.328552%)" fill-opacity="1"><g transform="translate(203.616825, 293.735032)"><g><path d="M 12.4375 -9.40625 C 12.644531 -8.476562 12.671875 -7.578125 12.515625 -6.703125 C 12.367188 -5.835938 12.066406 -5.046875 11.609375 -4.328125 C 11.160156 -3.609375 10.5625 -2.992188 9.8125 -2.484375 C 9.0625 -1.984375 8.1875 -1.625 7.1875 -1.40625 C 6.207031 -1.1875 5.265625 -1.15625 4.359375 -1.3125 C 3.460938 -1.46875 2.660156 -1.773438 1.953125 -2.234375 C 1.253906 -2.703125 0.65625 -3.300781 0.15625 -4.03125 C -0.332031 -4.769531 -0.679688 -5.601562 -0.890625 -6.53125 C -1.085938 -7.457031 -1.109375 -8.351562 -0.953125 -9.21875 C -0.804688 -10.082031 -0.503906 -10.867188 -0.046875 -11.578125 C 0.398438 -12.285156 1 -12.894531 1.75 -13.40625 C 2.507812 -13.914062 3.378906 -14.28125 4.359375 -14.5 C 5.359375 -14.71875 6.304688 -14.742188 7.203125 -14.578125 C 8.097656 -14.410156 8.894531 -14.097656 9.59375 -13.640625 C 10.300781 -13.191406 10.898438 -12.601562 11.390625 -11.875 C 11.890625 -11.144531 12.238281 -10.320312 12.4375 -9.40625 Z M 9.390625 -8.75 C 9.253906 -9.375 9.046875 -9.921875 8.765625 -10.390625 C 8.492188 -10.867188 8.164062 -11.25 7.78125 -11.53125 C 7.40625 -11.8125 6.972656 -12 6.484375 -12.09375 C 5.992188 -12.195312 5.460938 -12.1875 4.890625 -12.0625 C 4.328125 -11.9375 3.84375 -11.726562 3.4375 -11.4375 C 3.03125 -11.15625 2.707031 -10.804688 2.46875 -10.390625 C 2.226562 -9.972656 2.082031 -9.488281 2.03125 -8.9375 C 1.976562 -8.394531 2.019531 -7.8125 2.15625 -7.1875 C 2.300781 -6.539062 2.507812 -5.976562 2.78125 -5.5 C 3.050781 -5.03125 3.378906 -4.65625 3.765625 -4.375 C 4.148438 -4.09375 4.585938 -3.90625 5.078125 -3.8125 C 5.566406 -3.726562 6.09375 -3.75 6.65625 -3.875 C 7.226562 -4 7.71875 -4.195312 8.125 -4.46875 C 8.53125 -4.75 8.847656 -5.097656 9.078125 -5.515625 C 9.316406 -5.929688 9.460938 -6.410156 9.515625 -6.953125 C 9.578125 -7.503906 9.535156 -8.101562 9.390625 -8.75 Z M 9.390625 -8.75 "/></g></g></g><g fill="rgb(13.328552%, 13.328552%, 13.328552%)" fill-opacity="1"><g transform="translate(218.661087, 290.30028)"><g><path d="M 4.65625 -12.65625 C 4.613281 -12.476562 4.554688 -12.335938 4.484375 -12.234375 C 4.421875 -12.140625 4.316406 -12.066406 4.171875 -12.015625 C 4.035156 -11.972656 3.875 -11.96875 3.6875 -12 C 3.507812 -12.03125 3.304688 -12.0625 3.078125 -12.09375 C 2.859375 -12.132812 2.613281 -12.148438 2.34375 -12.140625 C 2.070312 -12.140625 1.785156 -12.085938 1.484375 -11.984375 C 0.941406 -11.796875 0.578125 -11.546875 0.390625 -11.234375 C 0.203125 -10.921875 0.175781 -10.566406 0.3125 -10.171875 C 0.40625 -9.910156 0.554688 -9.722656 0.765625 -9.609375 C 0.984375 -9.503906 1.238281 -9.4375 1.53125 -9.40625 C 1.832031 -9.375 2.164062 -9.367188 2.53125 -9.390625 C 2.894531 -9.410156 3.269531 -9.414062 3.65625 -9.40625 C 4.050781 -9.40625 4.441406 -9.378906 4.828125 -9.328125 C 5.210938 -9.285156 5.578125 -9.179688 5.921875 -9.015625 C 6.273438 -8.847656 6.59375 -8.609375 6.875 -8.296875 C 7.164062 -7.984375 7.398438 -7.566406 7.578125 -7.046875 C 7.765625 -6.484375 7.84375 -5.910156 7.8125 -5.328125 C 7.789062 -4.753906 7.65625 -4.21875 7.40625 -3.71875 C 7.164062 -3.226562 6.804688 -2.78125 6.328125 -2.375 C 5.847656 -1.96875 5.253906 -1.644531 4.546875 -1.40625 C 4.160156 -1.269531 3.753906 -1.175781 3.328125 -1.125 C 2.898438 -1.070312 2.472656 -1.050781 2.046875 -1.0625 C 1.617188 -1.070312 1.207031 -1.117188 0.8125 -1.203125 C 0.414062 -1.296875 0.0507812 -1.421875 -0.28125 -1.578125 L 0.125 -3.21875 C 0.15625 -3.332031 0.210938 -3.4375 0.296875 -3.53125 C 0.378906 -3.632812 0.488281 -3.710938 0.625 -3.765625 C 0.800781 -3.828125 0.992188 -3.832031 1.203125 -3.78125 C 1.410156 -3.738281 1.644531 -3.6875 1.90625 -3.625 C 2.164062 -3.570312 2.457031 -3.539062 2.78125 -3.53125 C 3.101562 -3.519531 3.457031 -3.582031 3.84375 -3.71875 C 4.363281 -3.894531 4.726562 -4.148438 4.9375 -4.484375 C 5.15625 -4.816406 5.175781 -5.226562 5 -5.71875 C 4.90625 -6.007812 4.742188 -6.21875 4.515625 -6.34375 C 4.296875 -6.46875 4.035156 -6.546875 3.734375 -6.578125 C 3.441406 -6.617188 3.113281 -6.625 2.75 -6.59375 C 2.382812 -6.570312 2.007812 -6.554688 1.625 -6.546875 C 1.238281 -6.546875 0.851562 -6.566406 0.46875 -6.609375 C 0.09375 -6.660156 -0.265625 -6.769531 -0.609375 -6.9375 C -0.953125 -7.113281 -1.273438 -7.375 -1.578125 -7.71875 C -1.878906 -8.0625 -2.132812 -8.519531 -2.34375 -9.09375 C -2.5 -9.5625 -2.554688 -10.046875 -2.515625 -10.546875 C -2.484375 -11.054688 -2.34375 -11.546875 -2.09375 -12.015625 C -1.851562 -12.484375 -1.503906 -12.910156 -1.046875 -13.296875 C -0.585938 -13.691406 -0.0195312 -14.003906 0.65625 -14.234375 C 1.039062 -14.367188 1.421875 -14.46875 1.796875 -14.53125 C 2.179688 -14.601562 2.554688 -14.632812 2.921875 -14.625 C 3.285156 -14.625 3.632812 -14.59375 3.96875 -14.53125 C 4.3125 -14.46875 4.625 -14.367188 4.90625 -14.234375 Z M 4.65625 -12.65625 "/></g></g></g></svg>