<svg xmlns="http://www.w3.org/2000/svg" xmlns:xlink="http://www.w3.org/1999/xlink" width="500" zoomAndPan="magnify" viewBox="0 0 375 374.999991" height="500" preserveAspectRatio="xMidYMid meet" version="1.0"><defs><g><g id="id1"/><g id="id2"/><g id="id3"/><g id="id4"/><g id="id5"/><g id="id6"/><g id="id7"/><g id="id8"/><g id="id9"/><g id="id10"/><g id="id11"/><g id="id12"/><g id="id13"/><g id="id14"/><g id="id15"/><g id="id16"/><g id="id17"/><g id="id18"/><g id="id19"/><g id="id20"/><g id="id21"/></g><clipPath id="id22"><path d="M 63.710938 63.710938 L 311.210938 63.710938 L 311.210938 311.210938 L 63.710938 311.210938 Z M 63.710938 63.710938 " clip-rule="nonzero"/></clipPath><clipPath id="id23"><path d="M 107.589844 107.589844 L 267.339844 107.589844 L 267.339844 267.339844 L 107.589844 267.339844 Z M 107.589844 107.589844 " clip-rule="nonzero"/></clipPath><clipPath id="id24"><path d="M 77.847656 178.527344 L 96.597656 178.527344 L 96.597656 196.527344 L 77.847656 196.527344 Z M 77.847656 178.527344 " clip-rule="nonzero"/></clipPath><clipPath id="id25"><path d="M 278.261719 178.527344 L 297.011719 178.527344 L 297.011719 196.527344 L 278.261719 196.527344 Z M 278.261719 178.527344 " clip-rule="nonzero"/></clipPath><clipPath id="id26"><path d="M 172 173 L 203 173 L 203 237.21875 L 172 237.21875 Z M 172 173 " clip-rule="nonzero"/></clipPath><clipPath id="id27"><path d="M 157.9375 137.46875 L 217.1875 137.46875 L 217.1875 197 L 157.9375 197 Z M 157.9375 137.46875 " clip-rule="nonzero"/></clipPath></defs><rect x="-37.5" width="450" fill="rgb(100%, 100%, 100%)" y="-37.499999" height="449.999989" fill-opacity="1"/><rect x="-37.5" width="450" fill="rgb(100%, 100%, 100%)" y="-37.499999" height="449.999989" fill-opacity="1"/><rect x="-37.5" width="450" fill="rgb(100%, 100%, 100%)" y="-37.499999" height="449.999989" fill-opacity="1"/><rect x="-37.5" width="450" fill="rgb(100%, 100%, 100%)" y="-37.499999" height="449.999989" fill-opacity="1"/><path fill="rgb(13.328552%, 13.328552%, 13.328552%)" d="M 187.375 56.125 C 114.886719 56.125 56.125 114.886719 56.125 187.375 C 56.125 259.863281 114.886719 318.625 187.375 318.625 C 259.863281 318.625 318.625 259.863281 318.625 187.375 C 318.625 114.886719 259.863281 56.125 187.375 56.125 " fill-opacity="1" fill-rule="nonzero"/><path fill="rgb(100%, 100%, 100%)" d="M 187.472656 60.722656 C 117.46875 60.722656 60.722656 117.46875 60.722656 187.472656 C 60.722656 257.476562 117.46875 314.222656 187.472656 314.222656 C 257.476562 314.222656 314.222656 257.476562 314.222656 187.472656 C 314.222656 117.46875 257.476562 60.722656 187.472656 60.722656 " fill-opacity="1" fill-rule="nonzero"/><g clip-path="url(#id22)"><path fill="rgb(13.328552%, 13.328552%, 13.328552%)" d="M 187.460938 311.210938 C 119.226562 311.210938 63.710938 255.699219 63.710938 187.460938 C 63.710938 119.226562 119.226562 63.710938 187.460938 63.710938 C 255.699219 63.710938 311.210938 119.226562 311.210938 187.460938 C 311.210938 255.699219 255.699219 311.210938 187.460938 311.210938 Z M 187.460938 65.90625 C 120.433594 65.90625 65.90625 120.433594 65.90625 187.460938 C 65.90625 254.488281 120.433594 309.015625 187.460938 309.015625 C 254.488281 309.015625 309.015625 254.488281 309.015625 187.460938 C 309.015625 120.433594 254.488281 65.90625 187.460938 65.90625 Z M 187.460938 65.90625 " fill-opacity="1" fill-rule="nonzero"/></g><g clip-path="url(#id23)"><path fill="rgb(13.328552%, 13.328552%, 13.328552%)" d="M 187.46875 267.339844 C 143.421875 267.339844 107.589844 231.507812 107.589844 187.46875 C 107.589844 143.421875 143.421875 107.589844 187.46875 107.589844 C 231.507812 107.589844 267.339844 143.421875 267.339844 187.46875 C 267.339844 231.507812 231.507812 267.339844 187.46875 267.339844 Z M 187.46875 109.007812 C 144.203125 109.007812 109.007812 144.203125 109.007812 187.46875 C 109.007812 230.730469 144.203125 265.925781 187.46875 265.925781 C 230.730469 265.925781 265.925781 230.730469 265.925781 187.46875 C 265.925781 144.203125 230.730469 109.007812 187.46875 109.007812 Z M 187.46875 109.007812 " fill-opacity="1" fill-rule="nonzero"/></g><path fill="rgb(13.328552%, 13.328552%, 13.328552%)" d="M 187.371094 111.996094 C 145.742188 111.996094 111.996094 145.742188 111.996094 187.371094 C 111.996094 229 145.742188 262.746094 187.371094 262.746094 C 229 262.746094 262.746094 229 262.746094 187.371094 C 262.746094 145.742188 229 111.996094 187.371094 111.996094 " fill-opacity="1" fill-rule="nonzero"/><g clip-path="url(#id24)"><path fill="rgb(13.328552%, 13.328552%, 13.328552%)" d="M 87.222656 192.992188 L 93.015625 196.527344 L 91.484375 189.867188 L 96.597656 185.390625 L 89.855469 184.804688 L 87.222656 178.527344 L 84.589844 184.804688 L 77.851562 185.390625 L 82.964844 189.867188 L 81.429688 196.527344 Z M 87.222656 192.992188 " fill-opacity="1" fill-rule="nonzero"/></g><g clip-path="url(#id25)"><path fill="rgb(13.328552%, 13.328552%, 13.328552%)" d="M 287.636719 192.992188 L 293.425781 196.527344 L 291.894531 189.867188 L 297.007812 185.390625 L 290.269531 184.804688 L 287.636719 178.527344 L 285 184.804688 L 278.261719 185.390625 L 283.375 189.867188 L 281.84375 196.527344 Z M 287.636719 192.992188 " fill-opacity="1" fill-rule="nonzero"/></g><path fill="rgb(100%, 100%, 100%)" d="M 200.660156 235.105469 L 187.582031 223.007812 L 174.503906 235.105469 L 174.503906 175.882812 L 200.660156 175.882812 Z M 200.660156 235.105469 " fill-opacity="1" fill-rule="nonzero"/><g clip-path="url(#id26)"><path fill="rgb(23.529053%, 23.529053%, 23.529053%)" d="M 200.660156 237.089844 C 200.164062 237.089844 199.675781 236.90625 199.300781 236.558594 L 187.582031 225.714844 L 175.859375 236.558594 C 175.28125 237.09375 174.4375 237.238281 173.707031 236.921875 C 172.984375 236.609375 172.511719 235.894531 172.511719 235.105469 L 172.511719 175.882812 C 172.511719 174.789062 173.402344 173.902344 174.503906 173.902344 L 200.660156 173.902344 C 201.757812 173.902344 202.648438 174.789062 202.648438 175.882812 L 202.648438 235.105469 C 202.648438 235.894531 202.179688 236.609375 201.453125 236.921875 C 201.199219 237.035156 200.925781 237.089844 200.660156 237.089844 Z M 187.582031 221.023438 C 188.066406 221.023438 188.554688 221.203125 188.9375 221.554688 L 198.667969 230.558594 L 198.667969 177.863281 L 176.496094 177.863281 L 176.496094 230.558594 L 186.222656 221.554688 C 186.605469 221.203125 187.09375 221.023438 187.582031 221.023438 Z M 187.582031 221.023438 " fill-opacity="1" fill-rule="nonzero"/></g><path fill="rgb(100%, 100%, 100%)" d="M 215.214844 166.953125 C 215.214844 167.851562 215.171875 168.75 215.082031 169.644531 C 214.992188 170.542969 214.859375 171.433594 214.683594 172.316406 C 214.507812 173.199219 214.289062 174.070312 214.023438 174.929688 C 213.761719 175.792969 213.457031 176.640625 213.109375 177.472656 C 212.765625 178.304688 212.378906 179.117188 211.953125 179.910156 C 211.523438 180.703125 211.058594 181.476562 210.558594 182.222656 C 210.054688 182.972656 209.515625 183.695312 208.941406 184.390625 C 208.367188 185.085938 207.761719 185.753906 207.121094 186.390625 C 206.480469 187.027344 205.8125 187.628906 205.113281 188.203125 C 204.410156 188.773438 203.6875 189.308594 202.933594 189.808594 C 202.179688 190.308594 201.40625 190.769531 200.605469 191.195312 C 199.808594 191.621094 198.992188 192.003906 198.15625 192.347656 C 197.320312 192.691406 196.46875 192.996094 195.601562 193.257812 C 194.738281 193.519531 193.859375 193.738281 192.972656 193.914062 C 192.085938 194.089844 191.191406 194.21875 190.289062 194.308594 C 189.390625 194.398438 188.484375 194.441406 187.582031 194.441406 C 186.675781 194.441406 185.773438 194.398438 184.871094 194.308594 C 183.972656 194.21875 183.078125 194.089844 182.191406 193.914062 C 181.300781 193.738281 180.425781 193.519531 179.558594 193.257812 C 178.691406 192.996094 177.84375 192.691406 177.007812 192.347656 C 176.171875 192.003906 175.351562 191.621094 174.554688 191.195312 C 173.757812 190.769531 172.980469 190.308594 172.230469 189.808594 C 171.476562 189.308594 170.75 188.773438 170.050781 188.203125 C 169.351562 187.628906 168.679688 187.027344 168.042969 186.390625 C 167.402344 185.753906 166.792969 185.085938 166.21875 184.390625 C 165.644531 183.695312 165.109375 182.972656 164.605469 182.222656 C 164.101562 181.476562 163.636719 180.703125 163.210938 179.910156 C 162.785156 179.117188 162.398438 178.304688 162.050781 177.472656 C 161.703125 176.640625 161.398438 175.792969 161.136719 174.929688 C 160.875 174.070312 160.65625 173.199219 160.480469 172.316406 C 160.300781 171.433594 160.167969 170.542969 160.082031 169.644531 C 159.992188 168.75 159.949219 167.851562 159.949219 166.953125 C 159.949219 166.050781 159.992188 165.152344 160.082031 164.257812 C 160.167969 163.363281 160.300781 162.472656 160.480469 161.589844 C 160.65625 160.707031 160.875 159.832031 161.136719 158.972656 C 161.398438 158.109375 161.703125 157.265625 162.050781 156.433594 C 162.398438 155.601562 162.785156 154.789062 163.210938 153.992188 C 163.636719 153.199219 164.101562 152.429688 164.605469 151.679688 C 165.109375 150.929688 165.644531 150.207031 166.21875 149.511719 C 166.792969 148.816406 167.402344 148.152344 168.042969 147.515625 C 168.679688 146.878906 169.351562 146.273438 170.050781 145.703125 C 170.75 145.132812 171.476562 144.59375 172.230469 144.09375 C 172.980469 143.59375 173.757812 143.132812 174.554688 142.707031 C 175.351562 142.285156 176.171875 141.898438 177.007812 141.554688 C 177.84375 141.210938 178.691406 140.90625 179.558594 140.644531 C 180.425781 140.386719 181.300781 140.167969 182.191406 139.992188 C 183.078125 139.816406 183.972656 139.683594 184.871094 139.59375 C 185.773438 139.507812 186.675781 139.460938 187.582031 139.460938 C 188.484375 139.460938 189.390625 139.507812 190.289062 139.59375 C 191.191406 139.683594 192.085938 139.816406 192.972656 139.992188 C 193.859375 140.167969 194.738281 140.386719 195.601562 140.644531 C 196.46875 140.90625 197.320312 141.210938 198.15625 141.554688 C 198.992188 141.898438 199.808594 142.285156 200.605469 142.707031 C 201.40625 143.132812 202.179688 143.59375 202.933594 144.09375 C 203.6875 144.59375 204.410156 145.132812 205.113281 145.703125 C 205.8125 146.273438 206.480469 146.878906 207.121094 147.515625 C 207.761719 148.152344 208.367188 148.816406 208.941406 149.511719 C 209.515625 150.207031 210.054688 150.929688 210.558594 151.679688 C 211.058594 152.429688 211.523438 153.199219 211.953125 153.992188 C 212.378906 154.789062 212.765625 155.601562 213.109375 156.433594 C 213.457031 157.265625 213.761719 158.109375 214.023438 158.972656 C 214.289062 159.832031 214.507812 160.707031 214.683594 161.589844 C 214.859375 162.472656 214.992188 163.363281 215.082031 164.257812 C 215.171875 165.152344 215.214844 166.050781 215.214844 166.953125 Z M 215.214844 166.953125 " fill-opacity="1" fill-rule="nonzero"/><g clip-path="url(#id27)"><path fill="rgb(23.529053%, 23.529053%, 23.529053%)" d="M 187.582031 196.421875 C 171.246094 196.421875 157.957031 183.203125 157.957031 166.953125 C 157.957031 150.703125 171.246094 137.480469 187.582031 137.480469 C 203.917969 137.480469 217.207031 150.703125 217.207031 166.953125 C 217.207031 183.203125 203.917969 196.421875 187.582031 196.421875 Z M 187.582031 141.445312 C 173.441406 141.445312 161.941406 152.886719 161.941406 166.953125 C 161.941406 181.015625 173.441406 192.460938 187.582031 192.460938 C 201.71875 192.460938 213.222656 181.015625 213.222656 166.953125 C 213.222656 152.886719 201.71875 141.445312 187.582031 141.445312 Z M 187.582031 141.445312 " fill-opacity="1" fill-rule="nonzero"/></g><path fill="rgb(100%, 100%, 100%)" d="M 196.285156 174.585938 L 194.351562 174.585938 L 194.351562 156.503906 C 194.351562 156.476562 194.347656 156.449219 194.347656 156.421875 C 194.34375 156.320312 194.339844 156.222656 194.332031 156.121094 C 194.328125 156.058594 194.320312 156 194.3125 155.9375 C 194.304688 155.847656 194.289062 155.761719 194.273438 155.671875 C 194.261719 155.597656 194.246094 155.527344 194.230469 155.457031 C 194.214844 155.382812 194.195312 155.308594 194.171875 155.238281 C 194.152344 155.152344 194.125 155.066406 194.097656 154.984375 C 194.078125 154.925781 194.054688 154.863281 194.03125 154.804688 C 193.996094 154.714844 193.957031 154.625 193.917969 154.535156 C 193.90625 154.507812 193.898438 154.480469 193.886719 154.457031 C 193.871094 154.425781 193.851562 154.398438 193.839844 154.367188 C 193.796875 154.285156 193.75 154.203125 193.703125 154.121094 C 193.667969 154.058594 193.628906 154 193.59375 153.941406 C 193.550781 153.875 193.507812 153.808594 193.460938 153.746094 C 193.410156 153.679688 193.363281 153.609375 193.308594 153.546875 C 193.269531 153.496094 193.226562 153.445312 193.183594 153.398438 C 193.125 153.328125 193.0625 153.257812 193 153.191406 C 192.957031 153.152344 192.914062 153.109375 192.871094 153.070312 C 192.804688 153.003906 192.734375 152.941406 192.664062 152.878906 C 192.617188 152.839844 192.566406 152.800781 192.519531 152.761719 C 192.449219 152.710938 192.378906 152.65625 192.304688 152.605469 C 192.246094 152.566406 192.183594 152.527344 192.125 152.488281 C 192.058594 152.449219 191.996094 152.40625 191.925781 152.367188 C 191.855469 152.328125 191.78125 152.289062 191.707031 152.253906 C 191.644531 152.222656 191.585938 152.195312 191.523438 152.167969 C 191.441406 152.128906 191.359375 152.097656 191.277344 152.066406 C 191.21875 152.042969 191.15625 152.019531 191.097656 152 C 191.011719 151.972656 190.929688 151.949219 190.84375 151.925781 C 190.777344 151.90625 190.710938 151.886719 190.640625 151.871094 C 190.566406 151.855469 190.488281 151.839844 190.410156 151.828125 C 190.324219 151.8125 190.242188 151.800781 190.160156 151.789062 C 190.09375 151.78125 190.027344 151.773438 189.960938 151.769531 C 189.863281 151.761719 189.765625 151.757812 189.667969 151.753906 C 189.636719 151.753906 189.605469 151.75 189.574219 151.75 C 189.546875 151.75 189.519531 151.753906 189.496094 151.753906 C 189.390625 151.753906 189.289062 151.761719 189.1875 151.769531 C 189.125 151.773438 189.066406 151.777344 189.007812 151.785156 C 188.917969 151.796875 188.824219 151.8125 188.734375 151.828125 C 188.664062 151.839844 188.59375 151.851562 188.523438 151.867188 C 188.449219 151.882812 188.371094 151.90625 188.296875 151.925781 C 188.214844 151.949219 188.132812 151.972656 188.050781 152 C 187.988281 152.019531 187.925781 152.042969 187.863281 152.066406 C 187.773438 152.101562 187.6875 152.136719 187.597656 152.175781 C 187.570312 152.191406 187.542969 152.199219 187.515625 152.210938 L 178.246094 156.609375 C 175.863281 157.738281 178.523438 165.65625 180.308594 165.65625 C 180.996094 165.65625 181.695312 165.503906 182.359375 165.191406 L 184.796875 164.035156 L 184.796875 174.585938 L 181.695312 174.585938 C 179.597656 174.585938 179.597656 182.15625 181.695312 182.15625 L 196.289062 182.15625 C 198.386719 182.15625 198.386719 174.585938 196.285156 174.585938 Z M 196.285156 174.585938 " fill-opacity="1" fill-rule="nonzero"/><path fill="rgb(23.529053%, 23.529053%, 23.529053%)" d="M 196.285156 184.136719 L 181.695312 184.136719 C 179.496094 184.136719 178.128906 181.925781 178.128906 178.371094 C 178.128906 177.152344 178.3125 175.984375 178.644531 175.082031 C 179.472656 172.847656 181.054688 172.605469 181.695312 172.605469 L 182.800781 172.605469 L 182.800781 167.160156 C 182.003906 167.476562 181.167969 167.636719 180.304688 167.636719 C 177.195312 167.636719 175.855469 162.433594 175.617188 161.390625 C 174.59375 156.890625 176.289062 155.34375 177.386719 154.820312 L 186.65625 150.421875 C 186.703125 150.402344 186.757812 150.378906 186.8125 150.355469 C 186.921875 150.308594 187.03125 150.265625 187.144531 150.21875 C 187.230469 150.1875 187.324219 150.152344 187.417969 150.121094 C 187.523438 150.085938 187.640625 150.050781 187.761719 150.019531 C 187.863281 149.988281 187.972656 149.960938 188.085938 149.9375 C 188.179688 149.914062 188.28125 149.894531 188.382812 149.878906 C 188.515625 149.855469 188.648438 149.832031 188.78125 149.816406 C 188.851562 149.808594 188.941406 149.800781 189.03125 149.792969 C 189.15625 149.785156 189.289062 149.777344 189.421875 149.773438 C 189.527344 149.765625 189.636719 149.765625 189.746094 149.773438 C 189.867188 149.777344 189.992188 149.785156 190.117188 149.792969 C 190.222656 149.800781 190.316406 149.8125 190.410156 149.824219 C 190.523438 149.835938 190.640625 149.855469 190.757812 149.875 C 190.859375 149.894531 190.96875 149.914062 191.078125 149.941406 C 191.1875 149.964844 191.277344 149.988281 191.371094 150.015625 C 191.496094 150.050781 191.617188 150.085938 191.734375 150.125 C 191.792969 150.144531 191.871094 150.171875 191.945312 150.199219 C 191.949219 150.199219 191.984375 150.214844 191.992188 150.214844 C 192.105469 150.261719 192.21875 150.304688 192.332031 150.355469 C 192.421875 150.394531 192.503906 150.4375 192.585938 150.476562 C 192.703125 150.535156 192.808594 150.589844 192.910156 150.648438 C 192.988281 150.691406 193.070312 150.742188 193.15625 150.792969 C 193.164062 150.796875 193.195312 150.816406 193.203125 150.824219 C 193.308594 150.890625 193.378906 150.9375 193.449219 150.984375 C 193.535156 151.042969 193.628906 151.117188 193.726562 151.191406 C 193.730469 151.195312 193.757812 151.214844 193.761719 151.21875 C 193.828125 151.269531 193.894531 151.324219 193.957031 151.375 C 194.046875 151.449219 194.144531 151.542969 194.246094 151.636719 C 194.300781 151.6875 194.355469 151.742188 194.410156 151.796875 C 194.519531 151.910156 194.613281 152.007812 194.699219 152.113281 C 194.75 152.167969 194.8125 152.242188 194.867188 152.3125 C 194.945312 152.40625 195.019531 152.507812 195.089844 152.609375 C 195.144531 152.683594 195.210938 152.78125 195.277344 152.882812 C 195.324219 152.957031 195.375 153.042969 195.425781 153.128906 C 195.484375 153.226562 195.542969 153.332031 195.601562 153.445312 C 195.628906 153.5 195.660156 153.550781 195.683594 153.605469 C 195.703125 153.640625 195.726562 153.695312 195.75 153.753906 C 195.796875 153.855469 195.84375 153.976562 195.890625 154.097656 C 195.925781 154.191406 195.957031 154.273438 195.984375 154.355469 C 196.027344 154.476562 196.066406 154.601562 196.097656 154.730469 C 196.121094 154.808594 196.148438 154.914062 196.171875 155.015625 C 196.195312 155.117188 196.214844 155.222656 196.234375 155.328125 C 196.257812 155.453125 196.277344 155.582031 196.292969 155.714844 C 196.300781 155.777344 196.308594 155.867188 196.316406 155.960938 C 196.328125 156.09375 196.332031 156.21875 196.335938 156.34375 C 196.339844 156.398438 196.34375 156.449219 196.34375 156.503906 L 196.34375 172.605469 C 198.511719 172.640625 199.855469 174.84375 199.855469 178.371094 C 199.855469 181.925781 198.488281 184.136719 196.285156 184.136719 Z M 182.332031 180.171875 L 195.652344 180.171875 C 195.941406 179.296875 195.941406 177.445312 195.652344 176.566406 L 194.351562 176.566406 C 193.25 176.566406 192.359375 175.679688 192.359375 174.585938 L 192.359375 156.558594 C 192.355469 156.511719 192.355469 156.464844 192.355469 156.421875 C 192.355469 156.398438 192.351562 156.335938 192.34375 156.273438 C 192.34375 156.25 192.339844 156.21875 192.335938 156.1875 C 192.328125 156.113281 192.320312 156.066406 192.3125 156.019531 C 192.304688 155.972656 192.296875 155.933594 192.289062 155.894531 C 192.277344 155.851562 192.265625 155.808594 192.253906 155.765625 C 192.234375 155.699219 192.222656 155.660156 192.210938 155.617188 C 192.195312 155.582031 192.183594 155.550781 192.171875 155.519531 C 192.148438 155.457031 192.128906 155.40625 192.105469 155.355469 C 192.101562 155.34375 192.09375 155.328125 192.085938 155.3125 C 192.078125 155.300781 192.070312 155.289062 192.066406 155.273438 C 192.035156 155.214844 192.011719 155.167969 191.984375 155.125 C 191.957031 155.078125 191.933594 155.039062 191.910156 155.003906 C 191.886719 154.964844 191.863281 154.933594 191.84375 154.90625 C 191.804688 154.847656 191.777344 154.816406 191.75 154.78125 C 191.726562 154.75 191.699219 154.722656 191.675781 154.691406 C 191.636719 154.644531 191.601562 154.609375 191.566406 154.574219 L 191.5 154.507812 C 191.457031 154.46875 191.421875 154.433594 191.382812 154.398438 L 191.296875 154.332031 C 191.253906 154.296875 191.214844 154.265625 191.175781 154.238281 L 191.042969 154.152344 C 191.019531 154.136719 190.984375 154.117188 190.949219 154.09375 C 190.898438 154.066406 190.855469 154.046875 190.816406 154.027344 C 190.773438 154.003906 190.742188 153.988281 190.707031 153.972656 C 190.664062 153.953125 190.613281 153.933594 190.5625 153.914062 L 190.472656 153.882812 C 190.410156 153.863281 190.359375 153.847656 190.308594 153.832031 C 190.273438 153.824219 190.230469 153.8125 190.1875 153.804688 C 190.160156 153.796875 190.113281 153.789062 190.066406 153.78125 C 190.007812 153.769531 189.960938 153.761719 189.914062 153.753906 C 189.871094 153.75 189.828125 153.746094 189.789062 153.742188 C 189.742188 153.738281 189.683594 153.734375 189.621094 153.734375 C 189.601562 153.734375 189.585938 153.734375 189.566406 153.734375 C 189.550781 153.734375 189.53125 153.734375 189.519531 153.734375 C 189.464844 153.734375 189.40625 153.738281 189.347656 153.742188 C 189.308594 153.746094 189.28125 153.75 189.253906 153.75 C 189.183594 153.761719 189.132812 153.769531 189.082031 153.777344 C 189.042969 153.785156 189.003906 153.789062 188.96875 153.800781 C 188.917969 153.808594 188.875 153.820312 188.832031 153.832031 C 188.78125 153.847656 188.734375 153.859375 188.691406 153.875 C 188.648438 153.890625 188.617188 153.902344 188.585938 153.914062 C 188.527344 153.9375 188.476562 153.957031 188.425781 153.980469 C 188.390625 153.996094 188.359375 154.007812 188.324219 154.023438 L 179.332031 158.289062 C 178.992188 159.390625 179.941406 162.582031 180.753906 163.636719 C 181.011719 163.59375 181.261719 163.515625 181.5 163.402344 L 183.9375 162.246094 C 184.554688 161.953125 185.277344 161.996094 185.855469 162.359375 C 186.433594 162.722656 186.785156 163.355469 186.785156 164.035156 L 186.785156 174.585938 C 186.785156 175.679688 185.894531 176.566406 184.792969 176.566406 L 182.328125 176.566406 C 182.042969 177.445312 182.042969 179.296875 182.332031 180.171875 Z M 182.332031 180.171875 " fill-opacity="1" fill-rule="nonzero"/><path fill="rgb(23.529053%, 23.529053%, 23.529053%)" d="M 181.265625 223.488281 C 180.164062 223.488281 179.273438 222.601562 179.273438 221.507812 L 179.273438 208.367188 C 179.273438 207.273438 180.164062 206.382812 181.265625 206.382812 C 182.363281 206.382812 183.257812 207.273438 183.257812 208.367188 L 183.257812 221.507812 C 183.257812 222.601562 182.363281 223.488281 181.265625 223.488281 Z M 181.265625 223.488281 " fill-opacity="1" fill-rule="nonzero"/><path fill="rgb(23.529053%, 23.529053%, 23.529053%)" d="M 181.265625 204.703125 C 180.164062 204.703125 179.273438 203.816406 179.273438 202.722656 L 179.273438 200.347656 C 179.273438 199.253906 180.164062 198.367188 181.265625 198.367188 C 182.363281 198.367188 183.257812 199.253906 183.257812 200.347656 L 183.257812 202.722656 C 183.257812 203.816406 182.363281 204.703125 181.265625 204.703125 Z M 181.265625 204.703125 " fill-opacity="1" fill-rule="nonzero"/><g fill="rgb(13.328552%, 13.328552%, 13.328552%)" fill-opacity="1"><g transform="translate(100.219257, 156.900795)"><g><path d="M 2.65625 -6.359375 L 0.78125 -1.859375 L -18.5 -9.90625 L -16.625 -14.40625 Z M 2.65625 -6.359375 "/></g></g></g><g fill="rgb(13.328552%, 13.328552%, 13.328552%)" fill-opacity="1"><g transform="translate(102.491095, 149.839263)"><g><path d="M -7.328125 -28.15625 L 10.515625 -17.296875 L 9.21875 -15.15625 C 9.019531 -14.832031 8.800781 -14.59375 8.5625 -14.4375 C 8.332031 -14.289062 8.03125 -14.1875 7.65625 -14.125 L -8.109375 -12.171875 C -7.773438 -12.015625 -7.453125 -11.851562 -7.140625 -11.6875 C -6.835938 -11.519531 -6.5625 -11.359375 -6.3125 -11.203125 L 3.265625 -5.375 L 1.046875 -1.71875 L -16.796875 -12.578125 L -15.46875 -14.765625 C -15.351562 -14.941406 -15.25 -15.082031 -15.15625 -15.1875 C -15.070312 -15.300781 -14.976562 -15.390625 -14.875 -15.453125 C -14.769531 -15.523438 -14.648438 -15.582031 -14.515625 -15.625 C -14.378906 -15.675781 -14.207031 -15.710938 -14 -15.734375 L 1.890625 -17.71875 C 1.515625 -17.882812 1.160156 -18.054688 0.828125 -18.234375 C 0.503906 -18.410156 0.203125 -18.585938 -0.078125 -18.765625 L -9.53125 -24.515625 Z M -7.328125 -28.15625 "/></g></g></g><g fill="rgb(13.328552%, 13.328552%, 13.328552%)" fill-opacity="1"><g transform="translate(112.846516, 132.545628)"><g><path d="M 0.375 -16.203125 L 5.46875 -21.609375 L 11.90625 -15.5625 C 11.726562 -14.238281 11.351562 -13.015625 10.78125 -11.890625 C 10.21875 -10.773438 9.484375 -9.738281 8.578125 -8.78125 C 7.398438 -7.53125 6.128906 -6.578125 4.765625 -5.921875 C 3.410156 -5.265625 2.039062 -4.894531 0.65625 -4.8125 C -0.71875 -4.726562 -2.066406 -4.9375 -3.390625 -5.4375 C -4.710938 -5.9375 -5.929688 -6.707031 -7.046875 -7.75 C -8.179688 -8.820312 -9.050781 -9.992188 -9.65625 -11.265625 C -10.257812 -12.535156 -10.570312 -13.84375 -10.59375 -15.1875 C -10.625 -16.539062 -10.363281 -17.890625 -9.8125 -19.234375 C -9.257812 -20.585938 -8.40625 -21.878906 -7.25 -23.109375 C -6.65625 -23.734375 -6.039062 -24.273438 -5.40625 -24.734375 C -4.78125 -25.191406 -4.15625 -25.570312 -3.53125 -25.875 C -2.90625 -26.175781 -2.285156 -26.40625 -1.671875 -26.5625 C -1.054688 -26.71875 -0.460938 -26.8125 0.109375 -26.84375 L 0.703125 -24.34375 C 0.804688 -23.957031 0.765625 -23.609375 0.578125 -23.296875 C 0.390625 -22.992188 0.0703125 -22.78125 -0.375 -22.65625 C -0.8125 -22.539062 -1.203125 -22.414062 -1.546875 -22.28125 C -1.898438 -22.15625 -2.238281 -22 -2.5625 -21.8125 C -2.882812 -21.625 -3.191406 -21.398438 -3.484375 -21.140625 C -3.785156 -20.890625 -4.101562 -20.585938 -4.4375 -20.234375 C -5.0625 -19.566406 -5.507812 -18.859375 -5.78125 -18.109375 C -6.050781 -17.367188 -6.144531 -16.613281 -6.0625 -15.84375 C -5.988281 -15.070312 -5.75 -14.300781 -5.34375 -13.53125 C -4.9375 -12.769531 -4.367188 -12.046875 -3.640625 -11.359375 C -2.828125 -10.597656 -2.003906 -10.035156 -1.171875 -9.671875 C -0.347656 -9.304688 0.46875 -9.125 1.28125 -9.125 C 2.09375 -9.132812 2.878906 -9.316406 3.640625 -9.671875 C 4.398438 -10.023438 5.109375 -10.546875 5.765625 -11.234375 C 6.160156 -11.660156 6.476562 -12.082031 6.71875 -12.5 C 6.96875 -12.925781 7.175781 -13.367188 7.34375 -13.828125 L 5.03125 -16 L 3.625 -14.484375 C 3.414062 -14.265625 3.191406 -14.144531 2.953125 -14.125 C 2.710938 -14.113281 2.503906 -14.195312 2.328125 -14.375 Z M 0.375 -16.203125 "/></g></g></g><g fill="rgb(13.328552%, 13.328552%, 13.328552%)" fill-opacity="1"><g transform="translate(125.622719, 118.82203)"><g><path d="M 0.6875 -14.125 C 1.226562 -14.519531 1.640625 -14.921875 1.921875 -15.328125 C 2.203125 -15.734375 2.367188 -16.140625 2.421875 -16.546875 C 2.484375 -16.960938 2.453125 -17.367188 2.328125 -17.765625 C 2.210938 -18.171875 2.019531 -18.554688 1.75 -18.921875 C 1.207031 -19.671875 0.546875 -20.082031 -0.234375 -20.15625 C -1.023438 -20.226562 -1.925781 -19.894531 -2.9375 -19.15625 L -4.53125 -18.015625 L -0.90625 -12.984375 Z M 15.515625 -11.15625 L 11.953125 -8.59375 C 11.285156 -8.125 10.632812 -8.035156 10 -8.328125 L 3.625 -11.21875 C 3.34375 -11.332031 3.085938 -11.378906 2.859375 -11.359375 C 2.628906 -11.347656 2.359375 -11.234375 2.046875 -11.015625 L 1.046875 -10.28125 L 5.5625 -4 L 1.640625 -1.171875 L -10.5625 -18.125 L -5.046875 -22.09375 C -3.828125 -22.976562 -2.691406 -23.601562 -1.640625 -23.96875 C -0.585938 -24.34375 0.367188 -24.5 1.234375 -24.4375 C 2.109375 -24.382812 2.890625 -24.144531 3.578125 -23.71875 C 4.265625 -23.289062 4.867188 -22.710938 5.390625 -21.984375 C 5.785156 -21.429688 6.082031 -20.859375 6.28125 -20.265625 C 6.488281 -19.671875 6.597656 -19.0625 6.609375 -18.4375 C 6.617188 -17.820312 6.53125 -17.195312 6.34375 -16.5625 C 6.164062 -15.925781 5.875 -15.3125 5.46875 -14.71875 C 5.8125 -14.769531 6.164062 -14.773438 6.53125 -14.734375 C 6.90625 -14.691406 7.28125 -14.601562 7.65625 -14.46875 Z M 15.515625 -11.15625 "/></g></g></g><g fill="rgb(13.328552%, 13.328552%, 13.328552%)" fill-opacity="1"><g transform="translate(139.460735, 108.801801)"><g><path d="M -1.296875 -18.4375 L 0.828125 -14.0625 L 6.734375 -16.9375 L 8.296875 -13.71875 L 2.390625 -10.84375 L 4.5625 -6.375 L 12.265625 -10.125 L 13.90625 -6.765625 L 1.8125 -0.875 L -7.328125 -19.65625 L 4.765625 -25.546875 L 6.40625 -22.1875 Z M -1.296875 -18.4375 "/></g></g></g><g fill="rgb(13.328552%, 13.328552%, 13.328552%)" fill-opacity="1"><g transform="translate(152.365114, 102.052564)"><g><path d="M 17.453125 -15.609375 C 17.859375 -14.148438 17.976562 -12.738281 17.8125 -11.375 C 17.644531 -10.007812 17.226562 -8.75 16.5625 -7.59375 C 15.90625 -6.445312 15 -5.445312 13.84375 -4.59375 C 12.695312 -3.75 11.34375 -3.109375 9.78125 -2.671875 L 1.9375 -0.53125 L -3.578125 -20.6875 L 4.265625 -22.828125 C 5.828125 -23.265625 7.320312 -23.398438 8.75 -23.234375 C 10.175781 -23.078125 11.46875 -22.675781 12.625 -22.03125 C 13.78125 -21.382812 14.773438 -20.515625 15.609375 -19.421875 C 16.441406 -18.328125 17.054688 -17.054688 17.453125 -15.609375 Z M 12.6875 -14.3125 C 12.414062 -15.3125 12.035156 -16.175781 11.546875 -16.90625 C 11.066406 -17.632812 10.507812 -18.210938 9.875 -18.640625 C 9.25 -19.066406 8.546875 -19.332031 7.765625 -19.4375 C 6.984375 -19.539062 6.144531 -19.46875 5.25 -19.21875 L 2.109375 -18.359375 L 5.65625 -5.421875 L 8.796875 -6.28125 C 9.691406 -6.53125 10.445312 -6.894531 11.0625 -7.375 C 11.675781 -7.863281 12.144531 -8.453125 12.46875 -9.140625 C 12.800781 -9.828125 12.988281 -10.609375 13.03125 -11.484375 C 13.082031 -12.367188 12.96875 -13.3125 12.6875 -14.3125 Z M 12.6875 -14.3125 "/></g></g></g><g fill="rgb(13.328552%, 13.328552%, 13.328552%)" fill-opacity="1"><g transform="translate(171.982366, 97.059562)"><g><path d="M 6.84375 -0.8125 L 2 -0.234375 L -0.453125 -20.984375 L 4.390625 -21.5625 Z M 6.84375 -0.8125 "/></g></g></g><g fill="rgb(13.328552%, 13.328552%, 13.328552%)" fill-opacity="1"><g transform="translate(179.543869, 95.851218)"><g><path d="M 6.96875 -17.125 L 6.953125 -12.25 L 13.53125 -12.21875 L 13.515625 -8.640625 L 6.9375 -8.671875 L 6.90625 -3.703125 L 15.484375 -3.65625 L 15.46875 0.078125 L 2.015625 0.015625 L 2.125 -20.875 L 15.578125 -20.8125 L 15.546875 -17.078125 Z M 6.96875 -17.125 "/></g></g></g><g fill="rgb(13.328552%, 13.328552%, 13.328552%)" fill-opacity="1"><g transform="translate(194.084063, 95.468573)"><g><path d="M 23.875 -16.625 L 19.875 3.875 L 17.40625 3.390625 C 17.039062 3.316406 16.742188 3.195312 16.515625 3.03125 C 16.296875 2.863281 16.09375 2.617188 15.90625 2.296875 L 8.625 -11.828125 C 8.59375 -11.453125 8.550781 -11.09375 8.5 -10.75 C 8.445312 -10.40625 8.390625 -10.085938 8.328125 -9.796875 L 6.1875 1.203125 L 1.984375 0.390625 L 5.984375 -20.109375 L 8.5 -19.625 C 8.695312 -19.582031 8.863281 -19.535156 9 -19.484375 C 9.132812 -19.441406 9.25 -19.382812 9.34375 -19.3125 C 9.445312 -19.25 9.546875 -19.160156 9.640625 -19.046875 C 9.734375 -18.929688 9.828125 -18.773438 9.921875 -18.578125 L 17.265625 -4.375 C 17.304688 -4.769531 17.347656 -5.15625 17.390625 -5.53125 C 17.441406 -5.90625 17.5 -6.253906 17.5625 -6.578125 L 19.6875 -17.4375 Z M 23.875 -16.625 "/></g></g></g><g fill="rgb(13.328552%, 13.328552%, 13.328552%)" fill-opacity="1"><g transform="translate(213.991389, 99.393167)"><g><path d="M 22.1875 -9.390625 L 16.75 -11.609375 L 10.34375 4.1875 L 5.84375 2.375 L 12.25 -13.421875 L 6.8125 -15.625 L 8.265625 -19.1875 L 23.640625 -12.953125 Z M 22.1875 -9.390625 "/></g></g></g><g fill="rgb(13.328552%, 13.328552%, 13.328552%)" fill-opacity="1"><g transform="translate(228.636529, 105.229525)"><g><path d="M 14.84375 -11.03125 L 12.296875 -6.875 L 17.90625 -3.4375 L 16.03125 -0.390625 L 10.421875 -3.828125 L 7.828125 0.40625 L 15.140625 4.890625 L 13.1875 8.078125 L 1.71875 1.046875 L 12.640625 -16.765625 L 24.109375 -9.734375 L 22.15625 -6.546875 Z M 14.84375 -11.03125 "/></g></g></g><g fill="rgb(13.328552%, 13.328552%, 13.328552%)" fill-opacity="1"><g transform="translate(241.31944, 112.875719)"><g><path d="M 21.109375 -3.84375 C 20.859375 -3.769531 20.632812 -3.738281 20.4375 -3.75 C 20.25 -3.769531 20.054688 -3.863281 19.859375 -4.03125 C 19.691406 -4.164062 19.554688 -4.367188 19.453125 -4.640625 C 19.347656 -4.910156 19.234375 -5.210938 19.109375 -5.546875 C 18.984375 -5.890625 18.804688 -6.242188 18.578125 -6.609375 C 18.359375 -6.984375 18.046875 -7.34375 17.640625 -7.6875 C 16.953125 -8.28125 16.3125 -8.570312 15.71875 -8.5625 C 15.132812 -8.5625 14.628906 -8.3125 14.203125 -7.8125 C 13.921875 -7.488281 13.789062 -7.132812 13.8125 -6.75 C 13.84375 -6.363281 13.957031 -5.953125 14.15625 -5.515625 C 14.363281 -5.078125 14.625 -4.613281 14.9375 -4.125 C 15.25 -3.644531 15.554688 -3.132812 15.859375 -2.59375 C 16.171875 -2.0625 16.453125 -1.503906 16.703125 -0.921875 C 16.953125 -0.347656 17.101562 0.238281 17.15625 0.84375 C 17.207031 1.457031 17.128906 2.082031 16.921875 2.71875 C 16.722656 3.363281 16.34375 4.015625 15.78125 4.671875 C 15.15625 5.398438 14.441406 5.976562 13.640625 6.40625 C 12.847656 6.84375 12.003906 7.085938 11.109375 7.140625 C 10.222656 7.203125 9.304688 7.066406 8.359375 6.734375 C 7.421875 6.398438 6.5 5.847656 5.59375 5.078125 C 5.101562 4.660156 4.644531 4.179688 4.21875 3.640625 C 3.800781 3.109375 3.429688 2.546875 3.109375 1.953125 C 2.796875 1.359375 2.53125 0.75 2.3125 0.125 C 2.101562 -0.488281 1.984375 -1.078125 1.953125 -1.640625 L 4.5 -2.453125 C 4.6875 -2.503906 4.890625 -2.507812 5.109375 -2.46875 C 5.328125 -2.4375 5.519531 -2.347656 5.6875 -2.203125 C 5.90625 -2.015625 6.066406 -1.753906 6.171875 -1.421875 C 6.273438 -1.085938 6.394531 -0.71875 6.53125 -0.3125 C 6.664062 0.0820312 6.851562 0.503906 7.09375 0.953125 C 7.34375 1.398438 7.71875 1.835938 8.21875 2.265625 C 8.882812 2.828125 9.53125 3.117188 10.15625 3.140625 C 10.78125 3.160156 11.363281 2.851562 11.90625 2.21875 C 12.21875 1.851562 12.367188 1.46875 12.359375 1.0625 C 12.359375 0.65625 12.253906 0.238281 12.046875 -0.1875 C 11.847656 -0.625 11.585938 -1.082031 11.265625 -1.5625 C 10.953125 -2.050781 10.628906 -2.554688 10.296875 -3.078125 C 9.972656 -3.597656 9.691406 -4.140625 9.453125 -4.703125 C 9.210938 -5.265625 9.066406 -5.859375 9.015625 -6.484375 C 8.972656 -7.109375 9.066406 -7.757812 9.296875 -8.4375 C 9.535156 -9.113281 9.96875 -9.820312 10.59375 -10.5625 C 11.101562 -11.15625 11.722656 -11.628906 12.453125 -11.984375 C 13.179688 -12.347656 13.960938 -12.550781 14.796875 -12.59375 C 15.640625 -12.644531 16.507812 -12.515625 17.40625 -12.203125 C 18.3125 -11.890625 19.203125 -11.363281 20.078125 -10.625 C 20.554688 -10.207031 20.992188 -9.757812 21.390625 -9.28125 C 21.796875 -8.8125 22.140625 -8.328125 22.421875 -7.828125 C 22.710938 -7.335938 22.945312 -6.832031 23.125 -6.3125 C 23.300781 -5.800781 23.425781 -5.289062 23.5 -4.78125 Z M 21.109375 -3.84375 "/></g></g></g><g fill="rgb(13.328552%, 13.328552%, 13.328552%)" fill-opacity="1"><g transform="translate(256.434652, 125.965304)"><g><path d="M 20.671875 11.046875 C 19.429688 11.921875 18.140625 12.515625 16.796875 12.828125 C 15.460938 13.148438 14.140625 13.191406 12.828125 12.953125 C 11.523438 12.722656 10.273438 12.21875 9.078125 11.4375 C 7.878906 10.65625 6.8125 9.597656 5.875 8.265625 L 1.171875 1.640625 L 18.203125 -10.453125 L 22.90625 -3.828125 C 23.84375 -2.492188 24.484375 -1.132812 24.828125 0.25 C 25.171875 1.644531 25.238281 2.992188 25.03125 4.296875 C 24.820312 5.609375 24.347656 6.84375 23.609375 8 C 22.867188 9.164062 21.890625 10.179688 20.671875 11.046875 Z M 17.796875 7.015625 C 18.628906 6.421875 19.304688 5.769531 19.828125 5.0625 C 20.359375 4.363281 20.710938 3.640625 20.890625 2.890625 C 21.066406 2.148438 21.070312 1.394531 20.90625 0.625 C 20.738281 -0.132812 20.390625 -0.894531 19.859375 -1.65625 L 17.96875 -4.296875 L 7.03125 3.46875 L 8.921875 6.109375 C 9.453125 6.867188 10.050781 7.453125 10.71875 7.859375 C 11.382812 8.273438 12.097656 8.519531 12.859375 8.59375 C 13.628906 8.664062 14.429688 8.570312 15.265625 8.3125 C 16.097656 8.050781 16.941406 7.617188 17.796875 7.015625 Z M 17.796875 7.015625 "/></g></g></g><g fill="rgb(13.328552%, 13.328552%, 13.328552%)" fill-opacity="1"><g transform="translate(267.890409, 142.236992)"><g><path d="M 18.453125 -0.90625 L 14.03125 1.125 L 16.796875 7.09375 L 13.546875 8.59375 L 10.78125 2.625 L 6.265625 4.703125 L 9.859375 12.484375 L 6.46875 14.046875 L 0.84375 1.828125 L 19.8125 -6.90625 L 25.4375 5.3125 L 22.046875 6.875 Z M 18.453125 -0.90625 "/></g></g></g><g fill="rgb(13.328552%, 13.328552%, 13.328552%)" fill-opacity="1"><g transform="translate(146.736225, 286.793413)"><g><path d="M 10.671875 0.046875 C 10.734375 0.0664062 10.796875 0.0976562 10.859375 0.140625 C 10.921875 0.191406 10.96875 0.257812 11 0.34375 L 11.734375 1.953125 C 11.015625 2.421875 10.222656 2.691406 9.359375 2.765625 C 8.492188 2.847656 7.546875 2.71875 6.515625 2.375 C 5.578125 2.050781 4.785156 1.597656 4.140625 1.015625 C 3.503906 0.441406 3.019531 -0.210938 2.6875 -0.953125 C 2.363281 -1.691406 2.191406 -2.5 2.171875 -3.375 C 2.160156 -4.25 2.3125 -5.140625 2.625 -6.046875 C 2.9375 -6.972656 3.375 -7.769531 3.9375 -8.4375 C 4.507812 -9.101562 5.160156 -9.625 5.890625 -10 C 6.617188 -10.382812 7.421875 -10.601562 8.296875 -10.65625 C 9.171875 -10.707031 10.0625 -10.578125 10.96875 -10.265625 C 11.4375 -10.109375 11.863281 -9.921875 12.25 -9.703125 C 12.632812 -9.484375 12.976562 -9.238281 13.28125 -8.96875 C 13.59375 -8.695312 13.863281 -8.410156 14.09375 -8.109375 C 14.332031 -7.804688 14.523438 -7.5 14.671875 -7.1875 L 13.265625 -6.21875 C 13.160156 -6.15625 13.054688 -6.101562 12.953125 -6.0625 C 12.847656 -6.019531 12.71875 -6.023438 12.5625 -6.078125 C 12.46875 -6.117188 12.382812 -6.171875 12.3125 -6.234375 C 12.238281 -6.304688 12.160156 -6.394531 12.078125 -6.5 C 11.992188 -6.601562 11.898438 -6.710938 11.796875 -6.828125 C 11.703125 -6.953125 11.582031 -7.078125 11.4375 -7.203125 C 11.289062 -7.328125 11.113281 -7.445312 10.90625 -7.5625 C 10.695312 -7.6875 10.441406 -7.800781 10.140625 -7.90625 C 9.671875 -8.0625 9.207031 -8.117188 8.75 -8.078125 C 8.300781 -8.035156 7.875 -7.890625 7.46875 -7.640625 C 7.0625 -7.398438 6.695312 -7.0625 6.375 -6.625 C 6.0625 -6.195312 5.796875 -5.671875 5.578125 -5.046875 C 5.359375 -4.398438 5.25 -3.796875 5.25 -3.234375 C 5.257812 -2.679688 5.351562 -2.1875 5.53125 -1.75 C 5.71875 -1.320312 5.976562 -0.953125 6.3125 -0.640625 C 6.65625 -0.328125 7.054688 -0.09375 7.515625 0.0625 C 7.773438 0.144531 8.015625 0.207031 8.234375 0.25 C 8.453125 0.300781 8.664062 0.328125 8.875 0.328125 C 9.082031 0.335938 9.285156 0.320312 9.484375 0.28125 C 9.679688 0.238281 9.894531 0.171875 10.125 0.078125 C 10.21875 0.0351562 10.304688 0.0078125 10.390625 0 C 10.484375 0 10.578125 0.015625 10.671875 0.046875 Z M 10.671875 0.046875 "/></g></g></g><g fill="rgb(13.328552%, 13.328552%, 13.328552%)" fill-opacity="1"><g transform="translate(158.650459, 290.821576)"><g><path d="M 9.078125 -3.203125 L 8.609375 -6.96875 C 8.566406 -7.21875 8.53125 -7.5 8.5 -7.8125 C 8.46875 -8.132812 8.4375 -8.476562 8.40625 -8.84375 C 8.238281 -8.507812 8.070312 -8.203125 7.90625 -7.921875 C 7.75 -7.640625 7.601562 -7.398438 7.46875 -7.203125 L 5.5625 -3.953125 Z M 12.75 2.703125 L 10.4375 2.21875 C 10.1875 2.164062 9.992188 2.0625 9.859375 1.90625 C 9.722656 1.75 9.640625 1.566406 9.609375 1.359375 L 9.3125 -1.03125 L 4.4375 -2.0625 L 3.203125 0.015625 C 3.097656 0.160156 2.945312 0.28125 2.75 0.375 C 2.550781 0.46875 2.332031 0.488281 2.09375 0.4375 L -0.234375 -0.046875 L 7.453125 -11.828125 L 10.5 -11.171875 Z M 12.75 2.703125 "/></g></g></g><g fill="rgb(13.328552%, 13.328552%, 13.328552%)" fill-opacity="1"><g transform="translate(171.876165, 293.498341)"><g><path d="M 9.375 -1.484375 L 9.125 0.9375 L 1.265625 0.125 L 2.59375 -12.921875 L 5.625 -12.609375 L 4.546875 -1.984375 Z M 9.375 -1.484375 "/></g></g></g><g fill="rgb(13.328552%, 13.328552%, 13.328552%)" fill-opacity="1"><g transform="translate(181.750989, 294.422133)"><g><path d="M 4.328125 0.125 L 1.265625 0.03125 L 1.65625 -13.078125 L 4.71875 -12.984375 Z M 4.328125 0.125 "/></g></g></g><g fill="rgb(13.328552%, 13.328552%, 13.328552%)" fill-opacity="1"><g transform="translate(187.955367, 294.765532)"><g><path d="M 12.71875 -7.375 C 12.78125 -6.425781 12.671875 -5.539062 12.390625 -4.71875 C 12.117188 -3.90625 11.707031 -3.1875 11.15625 -2.5625 C 10.601562 -1.945312 9.914062 -1.445312 9.09375 -1.0625 C 8.28125 -0.6875 7.363281 -0.46875 6.34375 -0.40625 L 1.265625 -0.078125 L 0.4375 -13.15625 L 5.515625 -13.484375 C 6.535156 -13.546875 7.472656 -13.4375 8.328125 -13.15625 C 9.191406 -12.882812 9.9375 -12.476562 10.5625 -11.9375 C 11.1875 -11.394531 11.6875 -10.734375 12.0625 -9.953125 C 12.445312 -9.171875 12.664062 -8.3125 12.71875 -7.375 Z M 9.609375 -7.1875 C 9.578125 -7.832031 9.457031 -8.410156 9.25 -8.921875 C 9.050781 -9.429688 8.785156 -9.859375 8.453125 -10.203125 C 8.117188 -10.546875 7.710938 -10.796875 7.234375 -10.953125 C 6.765625 -11.117188 6.238281 -11.1875 5.65625 -11.15625 L 3.625 -11.03125 L 4.171875 -2.625 L 6.203125 -2.75 C 6.785156 -2.78125 7.296875 -2.90625 7.734375 -3.125 C 8.179688 -3.351562 8.550781 -3.65625 8.84375 -4.03125 C 9.132812 -4.414062 9.34375 -4.875 9.46875 -5.40625 C 9.601562 -5.9375 9.648438 -6.53125 9.609375 -7.1875 Z M 9.609375 -7.1875 "/></g></g></g><g fill="rgb(13.328552%, 13.328552%, 13.328552%)" fill-opacity="1"><g transform="translate(202.455633, 293.765496)"><g><path d="M 7.09375 -6.484375 L 5.234375 -9.78125 C 5.085938 -9.988281 4.9375 -10.234375 4.78125 -10.515625 C 4.625 -10.796875 4.46875 -11.101562 4.3125 -11.4375 C 4.28125 -11.0625 4.242188 -10.707031 4.203125 -10.375 C 4.171875 -10.050781 4.128906 -9.773438 4.078125 -9.546875 L 3.578125 -5.796875 Z M 12.796875 -2.46875 L 10.484375 -2.03125 C 10.222656 -1.976562 10 -2 9.8125 -2.09375 C 9.632812 -2.1875 9.488281 -2.3125 9.375 -2.46875 L 8.171875 -4.578125 L 3.265625 -3.625 L 2.9375 -1.234375 C 2.90625 -1.066406 2.816406 -0.898438 2.671875 -0.734375 C 2.535156 -0.566406 2.347656 -0.457031 2.109375 -0.40625 L -0.234375 0.046875 L 2.265625 -13.796875 L 5.328125 -14.390625 Z M 12.796875 -2.46875 "/></g></g></g><g fill="rgb(13.328552%, 13.328552%, 13.328552%)" fill-opacity="1"><g transform="translate(215.841537, 291.154251)"><g><path d="M 10.46875 -10.359375 C 10.757812 -9.453125 10.875 -8.566406 10.8125 -7.703125 C 10.75 -6.835938 10.523438 -6.035156 10.140625 -5.296875 C 9.765625 -4.554688 9.226562 -3.898438 8.53125 -3.328125 C 7.84375 -2.753906 7.015625 -2.304688 6.046875 -1.984375 L 1.203125 -0.390625 L -2.90625 -12.84375 L 1.9375 -14.4375 C 2.90625 -14.757812 3.835938 -14.894531 4.734375 -14.84375 C 5.640625 -14.789062 6.460938 -14.582031 7.203125 -14.21875 C 7.953125 -13.851562 8.609375 -13.335938 9.171875 -12.671875 C 9.734375 -12.015625 10.164062 -11.242188 10.46875 -10.359375 Z M 7.5 -9.375 C 7.289062 -9.988281 7.023438 -10.515625 6.703125 -10.953125 C 6.378906 -11.398438 6.007812 -11.742188 5.59375 -11.984375 C 5.1875 -12.234375 4.734375 -12.378906 4.234375 -12.421875 C 3.742188 -12.460938 3.222656 -12.390625 2.671875 -12.203125 L 0.734375 -11.578125 L 3.375 -3.578125 L 5.3125 -4.203125 C 5.863281 -4.390625 6.320312 -4.644531 6.6875 -4.96875 C 7.0625 -5.300781 7.34375 -5.6875 7.53125 -6.125 C 7.71875 -6.570312 7.804688 -7.066406 7.796875 -7.609375 C 7.796875 -8.160156 7.695312 -8.75 7.5 -9.375 Z M 7.5 -9.375 "/></g></g></g></svg>